<?xml version="1.0" encoding="UTF-8" standalone="no"?>
<!-- Created with Inkscape (http://www.inkscape.org/) -->

<svg
   width="24.871349mm"
   height="23.673931mm"
   viewBox="0 0 24.871349 23.673931"
   version="1.1"
   id="svg5"
   inkscape:version="1.1.2 (0a00cf5339, 2022-02-04)"
   sodipodi:docname="logo_mobile.svg"
   inkscape:export-filename="/home/jana/src/janamach.github.io-src/local/logo.png"
   inkscape:export-xdpi="76.632431"
   inkscape:export-ydpi="76.632431"
   xmlns:inkscape="http://www.inkscape.org/namespaces/inkscape"
   xmlns:sodipodi="http://sodipodi.sourceforge.net/DTD/sodipodi-0.dtd"
   xmlns="http://www.w3.org/2000/svg"
   xmlns:svg="http://www.w3.org/2000/svg">
  <sodipodi:namedview
     id="namedview7"
     pagecolor="#ffffff"
     bordercolor="#666666"
     borderopacity="1.0"
     inkscape:pageshadow="2"
     inkscape:pageopacity="0.0"
     inkscape:pagecheckerboard="0"
     inkscape:document-units="mm"
     showgrid="false"
     inkscape:zoom="5.4520201"
     inkscape:cx="29.805466"
     inkscape:cy="56.951367"
     inkscape:window-width="2490"
     inkscape:window-height="1369"
     inkscape:window-x="70"
     inkscape:window-y="34"
     inkscape:window-maximized="1"
     inkscape:current-layer="text5084" />
  <defs
     id="defs2" />
  <g
     inkscape:groupmode="layer"
     id="layer4"
     inkscape:label="Layer 2"
     transform="translate(-22.715494,-70.401385)"
     style="display:inline">
    <g
       aria-label="janamach.com"
       id="text3554"
       style="font-size:10.7281px;line-height:1.25;display:inline;stroke-width:0.268204">
      <g
         aria-label="jana
mach
.com"
         id="text5084"
         style="font-weight:bold;font-size:10.5833px;font-family:'Liberation Mono';-inkscape-font-specification:'Liberation Mono Bold';text-align:end;text-anchor:end;stroke-width:0.0709623"
         transform="translate(-5.0470589,-3.9794118)">
        <path
           id="path10706"
           style="stroke-width:0.0709623"
           d="m 30.417875,74.756162 v 1.069702 h 1.452108 v -1.069702 z m 13.658081,1.968872 c -0.409964,0 -0.763089,0.09646 -1.059366,0.289388 -0.296278,0.192926 -0.542603,0.502986 -0.738973,0.930176 h -0.02067 c 0,-0.106797 -0.0086,-0.301446 -0.02584,-0.583944 -0.01723,-0.285944 -0.03101,-0.461646 -0.04134,-0.527099 h -1.384928 c 0.01033,0.151583 0.01894,0.32384 0.02584,0.516764 0.01033,0.18948 0.0155,0.433567 0.0155,0.733289 v 4.34082 h 1.452108 v -2.997233 c 0,-0.465086 0.106798,-0.849216 0.320393,-1.152384 0.217041,-0.306612 0.504708,-0.459404 0.862997,-0.459404 0.323838,0 0.551216,0.113172 0.682129,0.340548 0.134358,0.227375 0.201538,0.583945 0.201538,1.069702 v 3.198771 h 1.44694 v -3.550171 c 0,-1.433155 -0.578779,-2.149223 -1.736328,-2.149223 z m -7.167521,0.0052 c -1.381478,0 -2.165243,0.552425 -2.351277,1.658297 l 1.514119,0.07235 c 0.02756,-0.275607 0.09991,-0.474907 0.217041,-0.59893 0.120578,-0.127468 0.306614,-0.191203 0.558106,-0.191203 0.268716,0 0.463365,0.0913 0.583943,0.273885 0.120578,0.18259 0.180868,0.450792 0.180868,0.805636 v 0.28422 l -1.152385,0.02067 c -0.716578,0.01033 -1.255738,0.167088 -1.617472,0.470255 -0.358289,0.299723 -0.537435,0.738975 -0.537435,1.317749 0,0.533988 0.151585,0.949125 0.454753,1.245402 0.303167,0.292832 0.725194,0.43925 1.266072,0.43925 0.38585,0 0.716581,-0.08613 0.992188,-0.258382 0.279052,-0.172254 0.5271,-0.453031 0.74414,-0.842326 h 0.03101 c 0.03445,0.347953 0.137805,0.611505 0.310059,0.790649 0.175699,0.179144 0.446141,0.268718 0.81132,0.268718 0.103352,0 0.192925,-0.0034 0.268717,-0.01033 0.07924,-0.0069 0.153307,-0.01551 0.222209,-0.02584 0.0689,-0.01033 0.137804,-0.02411 0.206706,-0.04134 0.0689,-0.01722 0.146416,-0.03617 0.232544,-0.05684 v -0.785482 c -0.103353,0.02067 -0.210152,0.03101 -0.320394,0.03101 -0.165364,0 -0.284221,-0.05857 -0.356568,-0.1757 -0.0689,-0.120578 -0.103353,-0.33762 -0.103353,-0.651123 v -2.025716 c 0,-0.661456 -0.186036,-1.162721 -0.558105,-1.503784 -0.368624,-0.341063 -0.900894,-0.51108 -1.596802,-0.51108 z m 12.701551,0 c -1.381479,0 -2.165244,0.552425 -2.351278,1.658297 l 1.514119,0.07235 c 0.02756,-0.275607 0.09991,-0.474907 0.217041,-0.59893 0.120578,-0.127468 0.306614,-0.191203 0.558106,-0.191203 0.268716,0 0.463365,0.0913 0.583943,0.273885 0.120578,0.18259 0.180868,0.450792 0.180868,0.805636 v 0.28422 l -1.152384,0.02067 c -0.716578,0.01033 -1.255739,0.167088 -1.617473,0.470255 -0.358288,0.299723 -0.537435,0.738975 -0.537435,1.317749 0,0.533988 0.151585,0.949125 0.454753,1.245402 0.303167,0.292832 0.725194,0.43925 1.266072,0.43925 0.38585,0 0.716581,-0.08613 0.992188,-0.258382 0.279051,-0.172254 0.5271,-0.453031 0.744141,-0.842326 h 0.03101 c 0.03445,0.347953 0.137805,0.611515 0.310059,0.790649 0.175699,0.179144 0.446141,0.268718 0.81132,0.268718 0.103352,0 0.192926,-0.0034 0.268718,-0.01033 0.07924,-0.0069 0.153308,-0.01551 0.222208,-0.02584 0.0689,-0.01033 0.137805,-0.02411 0.206705,-0.04134 0.0689,-0.01722 0.146418,-0.03617 0.232545,-0.05684 v -0.785482 c -0.103351,0.02067 -0.21015,0.03101 -0.320394,0.03101 -0.165365,0 -0.284221,-0.05857 -0.356569,-0.1757 -0.0689,-0.120578 -0.103351,-0.33762 -0.103351,-0.651123 v -2.025716 c 0,-0.661456 -0.186037,-1.162721 -0.558106,-1.503784 -0.368624,-0.341063 -0.900894,-0.51108 -1.596801,-0.51108 z m -21.026624,0.103353 v 0.981852 h 1.829346 v 4.557345 c 0,0.375514 -0.07924,0.654568 -0.237712,0.837158 -0.158474,0.186034 -0.427193,0.279053 -0.806152,0.279053 -0.437526,0 -0.890559,-0.05857 -1.35909,-0.1757 V 84.3985 c 0.155028,0.05857 0.373794,0.110242 0.65629,0.155029 0.282498,0.04479 0.55983,0.06718 0.831991,0.06718 0.471977,0 0.887113,-0.08441 1.245402,-0.253214 0.361734,-0.168809 0.639066,-0.413412 0.83199,-0.733805 0.196371,-0.316948 0.294556,-0.697634 0.294556,-1.14205 v -5.658052 z m 9.027873,3.001884 v 0.28422 c 0,0.403075 -0.111967,0.737251 -0.335897,1.002523 -0.223931,0.261826 -0.502985,0.392741 -0.837158,0.392741 -0.41341,0 -0.620118,-0.261829 -0.620118,-0.785482 0,-0.21704 0.03617,-0.387573 0.108521,-0.511597 0.07235,-0.127469 0.177423,-0.218765 0.315226,-0.273885 0.141249,-0.05857 0.366904,-0.0913 0.676962,-0.09818 z m 12.70155,0 v 0.28422 c 0,0.403075 -0.111966,0.737251 -0.335897,1.002523 -0.223931,0.261826 -0.502985,0.392741 -0.837158,0.392741 -0.41341,0 -0.620117,-0.261829 -0.620117,-0.785482 0,-0.21704 0.03617,-0.387573 0.10852,-0.511597 0.07235,-0.127469 0.177423,-0.218765 0.315226,-0.273885 0.141248,-0.05857 0.366904,-0.0913 0.676962,-0.09818 z" />
        <path
           id="path10714"
           style="stroke-width:0.0709623"
           d="m 47.579105,83.475014 v 7.668782 h 1.452108 v -2.992065 c 0,-0.471976 0.106799,-0.85783 0.320394,-1.157552 0.21704,-0.303167 0.501262,-0.454753 0.852661,-0.454753 0.316948,10e-7 0.544326,0.103355 0.682129,0.310059 0.141249,0.20326 0.211873,0.564997 0.211873,1.085205 v 3.209106 h 1.446942 v -3.545003 c 0,-0.730358 -0.144696,-1.271241 -0.434084,-1.62264 -0.289386,-0.351398 -0.723471,-0.527099 -1.302246,-0.527099 -0.409964,0 -0.763089,0.09646 -1.059366,0.289388 -0.296278,0.192924 -0.542603,0.502985 -0.738973,0.930176 h -0.02067 c 0.02756,-0.358289 0.04134,-0.725194 0.04134,-1.100708 v -2.092896 z m -17.197399,1.97404 c -0.268717,0 -0.49265,0.08096 -0.671794,0.242879 -0.179145,0.158474 -0.327285,0.413413 -0.444417,0.764811 h -0.01034 v -0.248047 l -0.03101,-0.65629 h -1.080038 c 0.02067,0.144693 0.03101,0.542604 0.03101,1.193725 v 4.397664 h 1.18339 v -3.007568 c 0,-0.527097 0.04995,-0.95257 0.149862,-1.276408 0.103353,-0.323838 0.24288,-0.485758 0.418579,-0.485758 0.172253,0 0.289387,0.09991 0.3514,0.299723 0.06545,0.199815 0.09819,0.556384 0.09819,1.069702 v 3.400309 h 1.178223 v -3.105753 c 0,-0.554659 0.04995,-0.969795 0.149861,-1.245402 0.103352,-0.279052 0.24288,-0.418579 0.418579,-0.418579 0.172253,0 0.289387,0.09991 0.3514,0.299723 0.06545,0.199815 0.09819,0.556384 0.09819,1.069702 v 3.400309 h 1.178223 v -3.72587 c 0,-0.720023 -0.08785,-1.228178 -0.26355,-1.524455 -0.175699,-0.296277 -0.466812,-0.444417 -0.873331,-0.444417 -0.292833,0 -0.535713,0.07752 -0.728638,0.232544 -0.18948,0.155028 -0.353123,0.415135 -0.490926,0.780314 h -0.01033 c -0.06546,-0.344508 -0.173977,-0.599447 -0.325561,-0.764811 -0.148139,-0.165364 -0.373794,-0.248047 -0.676962,-0.248047 z m 6.909139,0 c -1.381479,0 -2.165243,0.552941 -2.351278,1.658813 l 1.514119,0.07235 c 0.02756,-0.275607 0.09991,-0.475424 0.217041,-0.599447 0.120578,-0.127467 0.306615,-0.191202 0.558106,-0.191202 0.268716,0 0.463366,0.0913 0.583943,0.273885 0.120578,0.182589 0.180868,0.451308 0.180868,0.806152 v 0.284221 l -1.152384,0.02067 c -0.716578,0.01034 -1.255739,0.167088 -1.617473,0.470256 -0.358288,0.299722 -0.537435,0.738975 -0.537435,1.317749 0,0.533989 0.151586,0.949125 0.454753,1.245402 0.303167,0.292832 0.725194,0.43925 1.266073,0.43925 0.385849,0 0.71658,-0.08613 0.992187,-0.258382 0.279052,-0.172254 0.527101,-0.453032 0.744141,-0.842326 h 0.03101 c 0.03445,0.347954 0.137804,0.611505 0.310058,0.790649 0.175699,0.179145 0.446141,0.268717 0.81132,0.268717 0.103353,0 0.192926,-0.0034 0.268718,-0.01033 0.07924,-0.0069 0.153306,-0.01551 0.222208,-0.02584 0.0689,-0.01033 0.137804,-0.02411 0.206706,-0.04134 0.0689,-0.01722 0.146416,-0.03617 0.232544,-0.05684 v -0.785482 c -0.103353,0.02067 -0.210151,0.03101 -0.320394,0.03101 -0.165364,0 -0.284221,-0.05857 -0.356567,-0.1757 -0.0689,-0.120578 -0.103353,-0.337621 -0.103353,-0.651123 V 87.46445 c 0,-0.661456 -0.186037,-1.162721 -0.558106,-1.503785 -0.368624,-0.341063 -0.900894,-0.511596 -1.596801,-0.511596 z m 6.444051,0 c -0.854382,0 -1.514121,0.258384 -1.979208,0.775146 -0.465086,0.513317 -0.697632,1.231625 -0.697632,2.154908 0,0.902611 0.230823,1.607138 0.692465,2.113566 0.461641,0.502982 1.116214,0.754475 1.963704,0.754475 0.451306,0 0.85783,-0.08096 1.219564,-0.242879 0.361734,-0.165364 0.652846,-0.39791 0.873331,-0.697632 0.223934,-0.299722 0.361739,-0.640789 0.413412,-1.023193 l -1.457275,-0.06718 c -0.04479,0.344508 -0.160198,0.604614 -0.346232,0.780314 -0.186035,0.172254 -0.416858,0.258382 -0.692465,0.258382 -0.761363,0 -1.142049,-0.644237 -1.142049,-1.932699 0,-1.250565 0.373796,-1.875854 1.121379,-1.875854 0.303167,0 0.537435,0.08613 0.702799,0.258382 0.165365,0.168809 0.268719,0.396187 0.310059,0.682129 l 1.462443,-0.07235 C 46.068948,86.73235 45.798506,86.275871 45.367871,85.945144 44.937235,85.614415 44.392906,85.44905 43.734896,85.44905 Z m -5.741252,3.105753 v 0.284221 c 0,0.403074 -0.111967,0.737251 -0.335897,1.002522 -0.22393,0.261827 -0.502985,0.392741 -0.837158,0.392741 -0.41341,0 -0.620117,-0.261829 -0.620117,-0.785482 0,-0.21704 0.03617,-0.387573 0.10852,-0.511596 0.07235,-0.12747 0.177423,-0.218765 0.315227,-0.273885 0.141248,-0.05857 0.366903,-0.09129 0.676961,-0.09819 z" />
        <path
           id="path10722"
           style="stroke-width:0.0709623"
           d="m 37.125466,92.075512 c -0.854381,0 -1.514121,0.258384 -1.979208,0.775148 -0.465086,0.513318 -0.697632,1.231625 -0.697632,2.154907 0,0.902608 0.230823,1.607135 0.692465,2.113562 0.461641,0.502977 1.116213,0.754467 1.963704,0.754467 0.451306,0 0.85783,-0.081 1.219564,-0.24288 0.361734,-0.16536 0.652846,-0.397907 0.873332,-0.697627 0.223933,-0.299717 0.361738,-0.640784 0.413411,-1.023184 l -1.457275,-0.0672 c -0.04479,0.34451 -0.160198,0.604607 -0.346232,0.780307 -0.186035,0.17226 -0.416858,0.258387 -0.692465,0.258387 -0.761363,0 -1.142049,-0.644234 -1.142049,-1.932698 0,-1.250564 0.373795,-1.875854 1.121379,-1.875854 0.303167,0 0.537435,0.08613 0.702799,0.258382 0.165365,0.168809 0.268719,0.396187 0.310059,0.68213 l 1.462443,-0.07235 C 39.459518,93.358791 39.189077,92.902311 38.758441,92.571584 38.327806,92.240856 37.783477,92.07549 37.125466,92.07549 Z m 6.289021,0 c -0.875051,0 -1.545126,0.251493 -2.010213,0.754476 -0.465086,0.502983 -0.697632,1.216123 -0.697632,2.139405 0,0.926732 0.234269,1.643309 0.7028,2.149736 0.468531,0.502977 1.126549,0.754467 1.974039,0.754467 0.878497,0 1.552018,-0.25149 2.020549,-0.754467 0.468532,-0.506427 0.702799,-1.223004 0.702799,-2.149736 0,-1.929247 -0.897452,-2.893881 -2.692342,-2.893881 z m 5.761406,0 c -0.268717,0 -0.492649,0.08096 -0.671794,0.24288 -0.179144,0.158473 -0.327284,0.413412 -0.444417,0.76481 h -0.01033 v -0.248047 l -0.03101,-0.65629 h -1.080037 c 0.02067,0.144693 0.03101,0.542604 0.03101,1.193725 v 4.397656 h 1.18339 v -3.007559 c 0,-0.527098 0.04995,-0.952571 0.149862,-1.276408 0.103352,-0.323837 0.242879,-0.485759 0.418579,-0.485759 0.172252,0 0.289386,0.09991 0.3514,0.299725 0.06545,0.199813 0.09819,0.556384 0.09819,1.0697 v 3.400301 h 1.178222 V 94.6645 c 0,-0.554656 0.04995,-0.969793 0.149862,-1.245402 0.103353,-0.27905 0.24288,-0.418578 0.418579,-0.418578 0.172253,0 0.289387,0.09991 0.3514,0.299725 0.06546,0.199813 0.09819,0.556384 0.09819,1.0697 v 3.400301 h 1.178223 v -3.72586 c 0,-0.720024 -0.08785,-1.22818 -0.263552,-1.524457 -0.175699,-0.296277 -0.46681,-0.444417 -0.87333,-0.444417 -0.292833,0 -0.535713,0.07752 -0.728638,0.232544 -0.189479,0.15503 -0.353122,0.415135 -0.490926,0.780313 h -0.01033 c -0.06546,-0.344508 -0.173978,-0.599446 -0.325562,-0.76481 -0.148138,-0.165364 -0.373794,-0.248047 -0.676961,-0.248047 z m -5.740735,0.997355 c 0.416855,0 0.713135,0.151585 0.888835,0.454753 0.175699,0.299723 0.263549,0.780317 0.263549,1.441773 0,0.671787 -0.09646,1.159272 -0.289388,1.462439 -0.192924,0.29972 -0.502985,0.449587 -0.930175,0.449587 -0.375514,0 -0.659737,-0.151587 -0.852662,-0.454757 -0.18948,-0.306607 -0.28422,-0.792369 -0.28422,-1.457269 0,-0.658011 0.09302,-1.138606 0.279053,-1.441773 0.18948,-0.303168 0.497817,-0.454753 0.925008,-0.454753 z m -11.360547,3.121258 v 1.576121 h 1.493449 v -1.576121 z" />
        <path
           id="path11761"
           style="fill:#ff0000;stroke-width:0.0709623"
           d="m 28.174943,87.4508 v 2.868042 h 1.183391 V 88.13603 c 0,-0.251939 0.0118,-0.479727 0.03462,-0.68523 z m 2.19625,0 c 0.0028,0.09231 0.0052,0.186915 0.0052,0.292489 v 2.575553 h 1.178223 v -2.280998 c 0,-0.217483 0.0079,-0.412463 0.02325,-0.587044 z m 2.196249,0 c 0.0028,0.09231 0.0052,0.186915 0.0052,0.292489 v 2.575553 h 1.17822 V 87.4508 Z m 5.425511,0 c 3.9e-5,0.0064 5.29e-4,0.01219 5.29e-4,0.0186 v 0.284221 l -1.152384,0.02067 c -0.716578,0.01034 -1.255739,0.167088 -1.617473,0.470256 -0.358288,0.299722 -0.537435,0.738975 -0.537435,1.317749 0,0.286365 0.04407,0.53854 0.131257,0.756543 h 3.222544 c 0.03516,-0.05517 0.06968,-0.112207 0.103353,-0.172599 h 0.031 c 0.006,0.06034 0.0152,0.117338 0.02532,0.172599 h 2.026233 v -0.03307 c -0.103353,0.02067 -0.210151,0.03101 -0.320394,0.03101 -0.165364,0 -0.284221,-0.05857 -0.356567,-0.1757 -0.0689,-0.120578 -0.103353,-0.337621 -0.103353,-0.651123 V 87.46424 c 0,-0.0046 1.7e-5,-0.0089 0,-0.01344 z m 3.158463,0 c -0.06192,0.282316 -0.09353,0.591208 -0.09353,0.928109 0,0.803843 0.183697,1.450311 0.549837,1.939933 h 4.189408 c 0.0032,-0.0042 0.0067,-0.0081 0.0098,-0.0124 0.223934,-0.299722 0.361738,-0.640789 0.413412,-1.023193 l -1.457276,-0.06718 c -0.04479,0.344508 -0.160198,0.604614 -0.346232,0.780314 -0.186035,0.172254 -0.416857,0.258383 -0.692464,0.258383 -0.761363,0 -1.142049,-0.644237 -1.142049,-1.932699 0,-0.336145 0.02815,-0.625473 0.08216,-0.871264 z m 6.427515,0 v 2.868042 h 1.452108 v -2.167309 c 0,-0.26007 0.03385,-0.492963 0.0987,-0.700733 z m 3.493327,0 c 0.01707,0.142539 0.02584,0.302851 0.02584,0.483691 v 2.384351 h 1.44694 v -2.720247 c 0,-0.05036 -6.91e-4,-0.09924 -0.0021,-0.147795 z M 37.99347,88.554609 v 0.28422 c 0,0.403074 -0.111967,0.737252 -0.335897,1.002523 -0.22393,0.261827 -0.502985,0.392741 -0.837158,0.392741 -0.41341,0 -0.620118,-0.261829 -0.620118,-0.785482 0,-0.21704 0.03617,-0.387574 0.108521,-0.511597 0.07235,-0.12747 0.177422,-0.218765 0.315226,-0.273885 0.141248,-0.05857 0.366903,-0.09128 0.676961,-0.09819 z" />
      </g>
    </g>
  </g>
</svg>
