<?xml version="1.0" encoding="UTF-8" standalone="no"?>
<!-- Created with Inkscape (http://www.inkscape.org/) -->

<svg
   width="73.074089mm"
   height="9.9435654mm"
   viewBox="0 0 73.074089 9.9435654"
   version="1.1"
   id="svg5"
   inkscape:version="1.1.2 (0a00cf5339, 2022-02-04)"
   sodipodi:docname="logo.svg"
   inkscape:export-filename="/home/jana/src/janamach.github.io-src/local/logo.png"
   inkscape:export-xdpi="76.632431"
   inkscape:export-ydpi="76.632431"
   xmlns:inkscape="http://www.inkscape.org/namespaces/inkscape"
   xmlns:sodipodi="http://sodipodi.sourceforge.net/DTD/sodipodi-0.dtd"
   xmlns="http://www.w3.org/2000/svg"
   xmlns:svg="http://www.w3.org/2000/svg">
  <sodipodi:namedview
     id="namedview7"
     pagecolor="#ffffff"
     bordercolor="#666666"
     borderopacity="1.0"
     inkscape:pageshadow="2"
     inkscape:pageopacity="0.0"
     inkscape:pagecheckerboard="0"
     inkscape:document-units="mm"
     showgrid="false"
     inkscape:zoom="1.9275802"
     inkscape:cx="219.96491"
     inkscape:cy="213.99888"
     inkscape:window-width="2490"
     inkscape:window-height="1369"
     inkscape:window-x="0"
     inkscape:window-y="0"
     inkscape:window-maximized="1"
     inkscape:current-layer="text3554" />
  <defs
     id="defs2" />
  <g
     inkscape:groupmode="layer"
     id="layer4"
     inkscape:label="Layer 2"
     transform="translate(-23.227006,-70.401385)">
    <g
       aria-label="janamach.com"
       id="text3554"
       style="font-size:10.7281px;line-height:1.25;stroke-width:0.268204">
      <path
         style="font-weight:bold;font-family:'Liberation Mono';-inkscape-font-specification:'Liberation Mono Bold';fill:#000000;fill-opacity:1;stroke-width:1.01368"
         d="m 87.787109,298.94138 v 4.08593 c 0.593953,0.22438 1.431359,0.42216 2.513672,0.59375 0.125442,0.0199 0.248138,0.0273 0.373047,0.0449 h 5.164063 c 0.868922,-0.16027 1.680145,-0.4064 2.421875,-0.75586 1.385887,-0.64675 2.448354,-1.585 3.187504,-2.8125 0.22385,-0.36131 0.40325,-0.75177 0.56054,-1.15625 h -6.460935 c -0.613565,0.4007 -1.463823,0.60156 -2.552734,0.60156 -1.576399,0 -3.20721,-0.20481 -4.888672,-0.60156 z"
         transform="scale(0.26458333)"
         id="path15181"
         inkscape:export-filename="/home/jana/src/janamach.github.io-src/local/logo.png"
         inkscape:export-xdpi="81.741257"
         inkscape:export-ydpi="81.741257" />
      <path
         id="path91452"
         style="font-weight:bold;font-family:'Liberation Mono';-inkscape-font-specification:'Liberation Mono Bold';fill:#000000;fill-opacity:1;stroke-width:1.01368"
         d="m 96.992188,292.34375 v 2.92383 c 0,0.68705 -0.07261,1.28432 -0.210938,1.80273 h 5.70313 c 0.0572,-0.43221 0.0918,-0.87828 0.0918,-1.34765 v -3.37891 z m 15.433592,0 c 0.28793,0.70346 0.68924,1.31843 1.2168,1.83398 1.1615,1.12192 2.77933,1.6836 4.85156,1.6836 1.47828,0 2.74487,-0.33029 3.80078,-0.99024 0.88966,-0.54917 1.69269,-1.40248 2.41797,-2.52734 z m 12.95117,0 c 0.18732,0.98707 0.53907,1.77146 1.07617,2.33008 0.67316,0.68634 1.70834,1.02931 3.10743,1.02929 0.39597,2e-5 0.74087,-0.0147 1.03125,-0.041 0.30357,-0.0265 0.58563,-0.058 0.84961,-0.0977 0.26396,-0.0396 0.52899,-0.0922 0.79297,-0.1582 0.26396,-0.066 0.56065,-0.13953 0.89062,-0.21875 v -2.84375 z m 11.58985,0 v 3.12109 h 5.5625 v -3.12109 z m 13.48242,0 v 3.12109 h 5.54297 v -3.12109 z m 10.64258,0 c 0.28792,0.70346 0.68924,1.31843 1.21679,1.83398 1.16151,1.12192 2.77738,1.6836 4.84961,1.6836 1.47828,0 2.74488,-0.33029 3.80078,-0.99024 0.88967,-0.54917 1.69269,-1.40248 2.41797,-2.52734 z m 12.94922,0 c 0.18727,0.98707 0.53904,1.77146 1.07617,2.33008 0.67314,0.68634 1.71029,1.02931 3.10937,1.02929 0.39597,2e-5 0.73892,-0.0147 1.0293,-0.041 0.30357,-0.0265 0.58758,-0.058 0.85156,-0.0977 0.26396,-0.0396 0.52704,-0.0922 0.79102,-0.1582 0.264,-0.066 0.56065,-0.13953 0.89062,-0.21875 v -2.84375 z m 10.24218,0 v 3.12109 h 4.53516 v -3.12109 z m 8.43555,0 v 3.12109 h 4.51367 v -3.12109 z m 8.41406,0 v 3.12109 h 4.51367 v -3.12109 z m 8.62305,0 c 0.28792,0.70346 0.68923,1.31843 1.2168,1.83398 1.16149,1.12192 2.77736,1.6836 4.84961,1.6836 1.47827,0 2.74682,-0.33029 3.80273,-0.99024 0.88966,-0.54917 1.69119,-1.40248 2.41602,-2.52734 z m 12.94922,0 c 0.18727,0.98707 0.53904,1.77146 1.07617,2.33008 0.67315,0.68634 1.71031,1.02931 3.10937,1.02929 0.39598,2e-5 0.73893,-0.0147 1.0293,-0.041 0.30357,-0.0265 0.58759,-0.058 0.85156,-0.0977 0.26397,-0.0396 0.52704,-0.0922 0.79102,-0.1582 0.26396,-0.066 0.56067,-0.13953 0.89062,-0.21875 v -2.84375 z m 13.08008,0 c 0.16286,0.21506 0.32829,0.42787 0.50976,0.62695 1.76866,1.92706 4.2765,2.89063 7.52344,2.89063 1.72906,0 3.28599,-0.31128 4.67187,-0.93164 1.34927,-0.6168 2.43713,-1.48128 3.27344,-2.58594 z m 22.84179,0 v 3.12109 h 5.56446 v -3.12109 z m 13.48243,0 v 3.12109 h 5.54492 v -3.12109 z m 11.32421,0 v 3.12109 h 5.72266 v -3.12109 z m 13.34766,0 c 0.16286,0.21506 0.32828,0.42787 0.50977,0.62695 1.76864,1.92706 4.27649,2.89063 7.52343,2.89063 1.72907,0 3.28599,-0.31128 4.67188,-0.93164 1.34925,-0.6168 2.43898,-1.48128 3.27539,-2.58594 z m 24.00977,0 c 0.16482,0.21532 0.33203,0.42851 0.51562,0.62695 1.79506,1.92706 4.31556,2.89063 7.5625,2.89063 3.36573,0 5.94713,-0.96357 7.74219,-2.89063 0.18361,-0.19846 0.35082,-0.41165 0.51562,-0.62695 z m 21.81836,0 v 3.12109 h 4.53515 v -3.12109 z m 8.43554,0 v 3.12109 h 4.51367 v -3.12109 z m 8.41406,0 v 3.12109 h 4.51368 v -3.12109 z"
         transform="scale(0.26458333)"
         inkscape:export-filename="/home/jana/src/janamach.github.io-src/local/logo.png"
         inkscape:export-xdpi="81.741257"
         inkscape:export-ydpi="81.741257" />
      <path
         id="path91519"
         style="font-weight:bold;font-family:'Liberation Mono';-inkscape-font-specification:'Liberation Mono Bold';fill:#ff0000;fill-opacity:1;stroke-width:1.01368"
         d="m 96.992188,285.74609 v 4.72852 h 5.583982 v -4.72852 z m 15.794922,0 c -0.58742,0.99292 -0.88672,2.21015 -0.88672,3.66016 0,0.37293 0.0261,0.7257 0.0644,1.06836 h 5.95118 c -0.13818,-0.41748 -0.21485,-0.91162 -0.21485,-1.50391 0,-0.83153 0.13886,-1.48382 0.41602,-1.95898 0.27719,-0.48837 0.68102,-0.83961 1.20898,-1.05078 0.21351,-0.0885 0.49245,-0.15732 0.80664,-0.21485 z m 11.78516,0 v 0.88868 c 0,1.5432 -0.42841,2.82387 -1.28516,3.83984 h 6.92773 c -0.0501,-0.38305 -0.0801,-0.823 -0.0801,-1.3457 v -3.38282 z m 12.39453,0 v 4.72852 h 5.5625 v -4.72852 z m 13.48242,0 v 4.72852 h 5.54297 v -4.72852 z m 11.0039,0 c -0.58691,0.99297 -0.88671,2.21005 -0.88671,3.66016 0,0.37293 0.026,0.7257 0.0645,1.06836 h 5.95117 c -0.13795,-0.41748 -0.21484,-0.91162 -0.21484,-1.50391 0,-0.83153 0.13886,-1.48382 0.41601,-1.95898 0.27719,-0.48837 0.67909,-0.83961 1.20703,-1.05078 0.21351,-0.0885 0.49245,-0.15732 0.80665,-0.21485 z m 11.78321,0 v 0.88868 c 0,1.5432 -0.42841,2.82387 -1.28516,3.83984 h 6.92774 c -0.0497,-0.38304 -0.0781,-0.82301 -0.0781,-1.3457 v -3.38282 z m 11.04687,0 v 4.72852 h 4.53516 v -4.72852 z m 8.43555,0 v 4.72852 h 4.51367 v -4.72852 z m 8.41406,0 v 4.72852 h 4.51367 v -4.72852 z m 8.98438,0 c -0.58693,0.99297 -0.88672,2.21005 -0.88672,3.66016 0,0.37293 0.0261,0.7257 0.0644,1.06836 h 5.95117 c -0.13795,-0.41748 -0.21484,-0.91162 -0.21484,-1.50391 0,-0.83153 0.13882,-1.48382 0.41602,-1.95898 0.27715,-0.48837 0.67906,-0.83961 1.20703,-1.05078 0.2135,-0.0885 0.49244,-0.15732 0.80664,-0.21485 z m 11.7832,0 v 0.88868 c 0,1.5432 -0.4284,2.82387 -1.28516,3.83984 h 6.92969 c -0.0501,-0.38305 -0.0801,-0.823 -0.0801,-1.3457 v -3.38282 z m 11.77149,0 c 0.0825,1.79511 0.41244,3.37533 1.00976,4.72852 h 6.07227 c -0.72158,-1.0481 -1.12316,-2.63772 -1.22852,-4.72852 z m 24.95507,0 v 4.72852 h 5.56446 v -4.72852 z m 13.48243,0 v 4.72852 h 5.54492 v -4.72852 z m 22.55859,0 c 0.0825,1.79511 0.41244,3.37533 1.00976,4.72852 H 301.75 c -0.72158,-1.0481 -1.12316,-2.63772 -1.22852,-4.72852 z m 23.97851,0 c 0.0933,1.8014 0.43383,3.38097 1.03321,4.72852 h 5.97461 c -0.037,-0.0528 -0.076,-0.1008 -0.11133,-0.15625 -0.62287,-1.00791 -0.9606,-2.55365 -1.04883,-4.57227 z m 14.79688,0 c -0.089,2.04135 -0.43315,3.59361 -1.06836,4.5918 -0.0314,0.0486 -0.0686,0.0901 -0.10156,0.13672 h 5.96484 c 0.59888,-1.34755 0.93815,-2.92712 1.03125,-4.72852 z m 9.16602,0 v 4.72852 h 4.53515 v -4.72852 z m 8.43554,0 v 4.72852 h 4.51367 v -4.72852 z m 8.41406,0 v 4.72852 h 4.51368 v -4.72852 z m -111.62109,2.33399 c -0.12688,0.97596 -0.4049,1.77198 -0.82812,2.39453 h 5.83789 c 0.2773,-0.67082 0.47024,-1.38174 0.57226,-2.13672 z m 60.99609,0 c -0.12684,0.97595 -0.40351,1.77199 -0.82617,2.39453 h 5.83789 c 0.27682,-0.67082 0.46828,-1.38174 0.57032,-2.13672 z m -25.40039,1.3457 v 1.04883 h 5.72266 v -1.04883 z"
         transform="scale(0.26458333)"
         inkscape:export-filename="/home/jana/src/janamach.github.io-src/local/logo.png"
         inkscape:export-xdpi="81.741257"
         inkscape:export-ydpi="81.741257" />
      <path
         id="path91664"
         style="font-weight:bold;font-family:'Liberation Mono';-inkscape-font-specification:'Liberation Mono Bold';fill:#000000;fill-opacity:1;stroke-width:1.01368"
         d="m 96.992188,279.15039 v 4.72852 h 5.583982 v -4.72852 z m 16.064452,0 c -0.0718,0.27451 -0.13592,0.55653 -0.18555,0.85156 l 5.80079,0.27735 c 0.0428,-0.42797 0.12145,-0.79629 0.2207,-1.12891 z m 11.20508,0 c 0.19933,0.60855 0.31055,1.34553 0.31055,2.23828 v 1.08789 l -4.41602,0.0801 c -2.33587,0.0336 -4.17404,0.47659 -5.52539,1.32227 h 15.50391 v -2.50977 c 0,-0.80379 -0.0795,-1.5384 -0.22266,-2.21875 z m 12.70508,0 v 4.72852 h 5.56836 c 0.0163,-1.73356 0.41892,-3.1745 1.2207,-4.3125 0.10511,-0.14846 0.21436,-0.28634 0.32812,-0.41602 z m 12.72656,0 c 0.50142,0.8725 0.75586,2.22188 0.75586,4.05859 v 0.66993 h 5.54297 v -2.01563 c 0,-0.99554 -0.0749,-1.89784 -0.22071,-2.71289 z m 12.02734,0 c -0.0718,0.27451 -0.13592,0.55653 -0.18554,0.85156 l 5.80078,0.27735 c 0.0428,-0.42797 0.12145,-0.79629 0.2207,-1.12891 z m 11.20508,0 c 0.19933,0.60855 0.31055,1.34553 0.31055,2.23828 v 1.08789 l -4.41406,0.0801 c -2.33588,0.0336 -4.17557,0.47659 -5.52735,1.32227 h 15.50586 v -2.50977 c 0,-0.80379 -0.0792,-1.5384 -0.22266,-2.21875 z m 11.35742,0 v 4.72852 h 4.53711 c 0.004,-1.94016 0.18659,-3.51327 0.54688,-4.72852 z m 8.23828,0 c 0.12889,0.79224 0.19727,1.87857 0.19727,3.28711 v 1.44141 h 4.51367 v -0.3125 c 0,-1.91357 0.16422,-3.36936 0.47461,-4.41602 z m 8.41407,0 c 0.12888,0.79224 0.19726,1.87857 0.19726,3.28711 v 1.44141 h 4.51367 v -2.68946 c 0,-0.7422 -0.0272,-1.41445 -0.0762,-2.03906 z m 9.45117,0 c -0.0718,0.27451 -0.13592,0.55653 -0.18555,0.85156 l 5.80078,0.27735 c 0.0428,-0.42797 0.1218,-0.79629 0.22071,-1.12891 z m 11.20508,0 c 0.19876,0.60855 0.30859,1.34553 0.30859,2.23828 v 1.08789 l -4.41406,0.0801 c -2.33587,0.0336 -4.17556,0.47659 -5.52735,1.32227 h 15.50586 v -2.50977 c 0,-0.80379 -0.0792,-1.5384 -0.22265,-2.21875 z m 13.09765,0 c -0.59107,1.35309 -0.92469,2.93442 -1.01562,4.72852 h 5.83984 c 0.0758,-2.07483 0.4404,-3.66561 1.1211,-4.72852 z m 12.30274,0 c 0.32965,0.53881 0.55786,1.17374 0.66601,1.92188 l 5.60352,-0.27735 c -0.11014,-0.5816 -0.26355,-1.12828 -0.45703,-1.64453 z m 11.63476,0 v 4.72852 h 5.57227 c 0.0189,-1.75001 0.41986,-3.1915 1.21875,-4.3125 0.10624,-0.14843 0.21732,-0.28656 0.33203,-0.41602 z m 12.75391,0 c 0.48406,0.79881 0.72851,2.13435 0.72852,4.01953 v 0.70899 h 5.54492 v -1.9961 c 0,-1.00582 -0.0753,-1.91418 -0.21875,-2.73242 z m 24.30469,0 c -0.59108,1.35309 -0.92469,2.93442 -1.01563,4.72852 h 5.83985 c 0.0758,-2.07483 0.44039,-3.66561 1.12109,-4.72852 z m 12.30468,0 c 0.33022,0.53881 0.55786,1.17374 0.66602,1.92188 l 5.60156,-0.27735 c -0.11013,-0.5816 -0.26355,-1.12828 -0.45703,-1.64453 z m 11.62696,0 c -0.57638,1.34954 -0.89834,2.92907 -0.97657,4.72852 h 5.84571 c 0.0758,-2.0704 0.41078,-3.64731 1.03711,-4.66797 0.0132,-0.0215 0.0291,-0.0396 0.043,-0.0605 z m 12.81445,0 c 0.0128,0.0212 0.0283,0.0389 0.041,0.0605 0.59186,1.00967 0.90901,2.58687 0.98046,4.66797 h 5.82422 c -0.0702,-1.81767 -0.36551,-3.39564 -0.88672,-4.72852 z m 10.17774,0 v 4.72852 h 4.5371 c 0.004,-1.94016 0.1866,-3.51327 0.54688,-4.72852 z m 8.23828,0 c 0.12888,0.79224 0.19726,1.87857 0.19726,3.28711 v 1.44141 h 4.51367 v -0.3125 c 0,-1.91357 0.16422,-3.36936 0.47461,-4.41602 z m 8.41406,0 c 0.12888,0.79224 0.19726,1.87857 0.19726,3.28711 v 1.44141 h 4.51368 v -2.68946 c 0,-0.7422 -0.0263,-1.41445 -0.0762,-2.03906 z"
         transform="scale(0.26458333)"
         inkscape:export-filename="/home/jana/src/janamach.github.io-src/local/logo.png"
         inkscape:export-xdpi="81.741257"
         inkscape:export-ydpi="81.741257" />
      <path
         id="path91698"
         style="font-weight:bold;font-family:'Liberation Mono';-inkscape-font-specification:'Liberation Mono Bold';fill:#000000;fill-opacity:1;stroke-width:1.01368"
         d="m 149.33984,273.62695 c -1.57067,0 -2.92348,0.37024 -4.05859,1.10938 -0.88284,0.57487 -1.6473,1.4294 -2.29883,2.54687 h 12.25977 c -0.98705,-2.43292 -2.9503,-3.65625 -5.90235,-3.65625 z m -27.46093,0.0195 c -4.00309,0 -6.69511,1.21306 -8.07813,3.63672 h 7.3418 c 0.16108,-0.0166 0.32179,-0.0332 0.5,-0.0332 0.12869,0 0.2396,0.0222 0.35937,0.0332 h 7.26758 c -0.32995,-0.63965 -0.75186,-1.19945 -1.27148,-1.67578 -1.41229,-1.30669 -3.45297,-1.96094 -6.11914,-1.96094 z m 48.66601,0 c -4.00304,0 -6.69456,1.2131 -8.07812,3.63672 h 7.33984 c 0.16108,-0.0166 0.32179,-0.0332 0.5,-0.0332 0.12869,0 0.23956,0.0222 0.35938,0.0332 h 7.26757 c -0.33029,-0.63965 -0.75185,-1.19945 -1.27148,-1.67578 -1.41229,-1.30669 -3.451,-1.96094 -6.11719,-1.96094 z m 22.19336,0 c -1.02952,0 -1.88787,0.31133 -2.57422,0.93164 -0.64531,0.57088 -1.18187,1.48086 -1.61718,2.70508 h 2.0371 c 0.13149,-0.057 0.2679,-0.0918 0.41211,-0.0918 0.18029,0 0.34155,0.0348 0.49024,0.0918 h 5.0332 c -0.25444,-1.19043 -0.64506,-2.0938 -1.1875,-2.68554 -0.56755,-0.63355 -1.43224,-0.95118 -2.59375,-0.95118 z m 8.55274,0 c -1.12192,0 -2.05188,0.29862 -2.79102,0.89258 -0.68049,0.55678 -1.27082,1.48005 -1.77734,2.74414 h 2.23437 c 0.14362,-0.0597 0.294,-0.0918 0.45313,-0.0918 0.18028,0 0.34152,0.0348 0.49023,0.0918 h 5.41602 c -0.16517,-0.79278 -0.389,-1.44341 -0.67969,-1.93359 -0.67315,-1.13511 -1.78823,-1.70313 -3.3457,-1.70313 z m 17.91796,0 c -4.00307,0 -6.6951,1.21306 -8.07812,3.63672 h 7.33984 c 0.16109,-0.0166 0.32179,-0.0332 0.5,-0.0332 0.1287,0 0.23953,0.0222 0.35938,0.0332 h 7.26758 c -0.3303,-0.63965 -0.75186,-1.19945 -1.27149,-1.67578 -1.41228,-1.30669 -3.451,-1.96094 -6.11719,-1.96094 z m 24.6875,0 c -3.27333,0 -5.80017,0.99087 -7.58203,2.97071 -0.19169,0.21158 -0.36801,0.43629 -0.53906,0.66601 h 16.04688 c -0.46081,-0.65353 -1.01431,-1.23434 -1.66797,-1.73632 -1.64987,-1.2671 -3.73682,-1.9004 -6.25782,-1.9004 z m 27.10547,0 c -1.57067,0 -2.92348,0.37024 -4.05859,1.10938 -0.87746,0.57137 -1.63814,1.41945 -2.28711,2.52734 h 12.26172 c -0.24798,-0.61934 -0.55375,-1.16306 -0.92774,-1.61718 -1.1087,-1.34631 -2.77085,-2.01954 -4.98828,-2.01954 z m 33.89258,0 c -3.27334,0 -5.80212,0.99087 -7.58398,2.97071 -0.1917,0.21158 -0.36801,0.43629 -0.53907,0.66601 h 16.04688 c -0.46081,-0.65368 -1.01431,-1.23434 -1.66797,-1.73632 -1.64987,-1.2671 -3.73486,-1.9004 -6.25586,-1.9004 z m 24.09375,0 c -3.35253,0 -5.91931,0.96358 -7.70117,2.89063 -0.21865,0.23648 -0.42339,0.48535 -0.61523,0.74609 h 16.73828 c -1.68309,-2.42094 -4.48651,-3.63672 -8.42188,-3.63672 z m 22.07617,0 c -1.02951,0 -1.88786,0.31133 -2.57422,0.93164 -0.6453,0.57088 -1.18185,1.48086 -1.61718,2.70508 h 2.03711 c 0.13149,-0.057 0.26789,-0.0918 0.41211,-0.0918 0.18028,0 0.34152,0.0348 0.49023,0.0918 h 5.0332 c -0.25443,-1.19043 -0.64506,-2.0938 -1.1875,-2.68554 -0.56755,-0.63355 -1.43224,-0.95118 -2.59375,-0.95118 z m 8.55274,0 c -1.12191,0 -2.05383,0.29862 -2.79297,0.89258 -0.68049,0.55678 -1.26908,1.48005 -1.77539,2.74414 h 2.23437 c 0.14363,-0.0597 0.29401,-0.0918 0.45313,-0.0918 0.18028,0 0.34156,0.0348 0.49023,0.0918 h 5.41602 c -0.16517,-0.79278 -0.389,-1.44341 -0.67969,-1.93359 -0.67315,-1.13511 -1.78823,-1.70313 -3.3457,-1.70313 z m -269.632815,0.39649 v 3.24023 h 12.591795 v -3.24023 z m 46.822265,0 c 0.0396,0.58075 0.0732,1.24133 0.0996,1.98047 0.0178,0.32538 0.0175,0.8497 0.0273,1.25976 h 5.39258 c -0.0166,-0.38996 -0.0185,-0.62991 -0.0547,-1.2207 -0.066,-1.09551 -0.11859,-1.76875 -0.1582,-2.01953 z m 47.35938,0 c 0.0617,0.43174 0.0903,1.63141 0.10351,3.24023 h 4.15235 v -0.72656 l -0.11915,-2.51367 z m 158.32421,0 c 0.0617,0.43174 0.0917,1.63141 0.10547,3.24023 h 4.15235 v -0.72656 l -0.11914,-2.51367 z"
         transform="scale(0.26458333)"
         inkscape:export-filename="/home/jana/src/janamach.github.io-src/local/logo.png"
         inkscape:export-xdpi="81.741257"
         inkscape:export-ydpi="81.741257" />
      <path
         style="font-weight:bold;font-family:'Liberation Mono';-inkscape-font-specification:'Liberation Mono Bold';fill:#000000;fill-opacity:1;stroke-width:0.268203"
         d="m 68.428379,72.113427 v 1.251085 h 1.44539 c 0.0159,-0.276209 0.02687,-0.555868 0.02687,-0.841808 v -0.409277 z"
         id="path15043"
         inkscape:export-filename="/home/jana/src/janamach.github.io-src/local/logo.png"
         inkscape:export-xdpi="81.741257"
         inkscape:export-ydpi="81.741257" />
      <path
         id="path15009"
         style="font-weight:bold;font-family:'Liberation Mono';-inkscape-font-specification:'Liberation Mono Bold';fill:#ff0000;fill-opacity:1;stroke-width:1.01368"
         d="m 97.013672,266.08398 v 4.09766 h 5.562498 v -4.09766 z m 161.613278,0 v 4.60352 h 5.56446 v -4.60352 z"
         transform="scale(0.26458333)"
         inkscape:export-filename="/home/jana/src/janamach.github.io-src/local/logo.png"
         inkscape:export-xdpi="81.741257"
         inkscape:export-ydpi="81.741257" />
    </g>
  </g>
  <g
     inkscape:groupmode="layer"
     id="layer5"
     inkscape:label="Layer 3"
     transform="translate(-23.227006,-70.401385)" />
  <g
     inkscape:label="Layer 1"
     id="layer1"
     inkscape:groupmode="layer"
     transform="translate(-23.227006,-70.401385)">
    <g
       id="g13948"
       transform="matrix(1.1009495,0,0,1.1009495,-8.5217113,-22.931079)"
       style="fill:#3c9263;fill-opacity:1" />
    <g
       id="g55879"
       transform="matrix(1.1009495,0,0,1.1009495,-7.3153078,80.915159)" />
  </g>
</svg>
