<?xml version="1.0" encoding="UTF-8" standalone="no"?>
<!-- Created with Inkscape (http://www.inkscape.org/) -->

<svg
   width="210mm"
   height="297mm"
   viewBox="0 0 210 297"
   version="1.1"
   id="svg5"
   inkscape:version="1.1.2 (0a00cf5339, 2022-02-04)"
   sodipodi:docname="logo.svg"
   inkscape:export-filename="/home/jana/src/janamach.github.io-src/local/logo.png"
   inkscape:export-xdpi="76.632431"
   inkscape:export-ydpi="76.632431"
   xmlns:inkscape="http://www.inkscape.org/namespaces/inkscape"
   xmlns:sodipodi="http://sodipodi.sourceforge.net/DTD/sodipodi-0.dtd"
   xmlns="http://www.w3.org/2000/svg"
   xmlns:svg="http://www.w3.org/2000/svg">
  <sodipodi:namedview
     id="namedview7"
     pagecolor="#ffffff"
     bordercolor="#666666"
     borderopacity="1.0"
     inkscape:pageshadow="2"
     inkscape:pageopacity="0.0"
     inkscape:pagecheckerboard="0"
     inkscape:document-units="mm"
     showgrid="false"
     inkscape:zoom="1.9275802"
     inkscape:cx="240.97571"
     inkscape:cy="323.98134"
     inkscape:window-width="2490"
     inkscape:window-height="1369"
     inkscape:window-x="0"
     inkscape:window-y="0"
     inkscape:window-maximized="1"
     inkscape:current-layer="text3554" />
  <defs
     id="defs2" />
  <g
     inkscape:groupmode="layer"
     id="layer4"
     inkscape:label="Layer 2">
    <g
       aria-label="janamach.com"
       id="text3554"
       style="font-size:10.7281px;line-height:1.25;stroke-width:0.268204">
      <path
         style="font-weight:bold;font-family:'Liberation Mono';-inkscape-font-specification:'Liberation Mono Bold';fill:#000000;fill-opacity:1;stroke-width:1.01368"
         d="m 87.787109,298.94138 v 4.08593 c 0.593953,0.22438 1.431359,0.42216 2.513672,0.59375 0.125442,0.0199 0.248138,0.0273 0.373047,0.0449 h 5.164063 c 0.868922,-0.16027 1.680145,-0.4064 2.421875,-0.75586 1.385887,-0.64675 2.448354,-1.585 3.187504,-2.8125 0.22385,-0.36131 0.40325,-0.75177 0.56054,-1.15625 h -6.460935 c -0.613565,0.4007 -1.463823,0.60156 -2.552734,0.60156 -1.576399,0 -3.20721,-0.20481 -4.888672,-0.60156 z"
         transform="scale(0.26458333)"
         id="path15181"
         inkscape:export-filename="/home/jana/src/janamach.github.io-src/local/logo.png"
         inkscape:export-xdpi="81.741257"
         inkscape:export-ydpi="81.741257" />
      <path
         id="path91452"
         style="font-weight:bold;font-family:'Liberation Mono';-inkscape-font-specification:'Liberation Mono Bold';fill:#000000;fill-opacity:1;stroke-width:1.01368"
         d="m 96.992188,292.34375 v 2.92383 c 0,0.68705 -0.07261,1.28432 -0.210938,1.80273 h 5.70313 c 0.0572,-0.43221 0.0918,-0.87828 0.0918,-1.34765 v -3.37891 z m 15.433592,0 c 0.28793,0.70346 0.68924,1.31843 1.2168,1.83398 1.1615,1.12192 2.77933,1.6836 4.85156,1.6836 1.47828,0 2.74487,-0.33029 3.80078,-0.99024 0.88966,-0.54917 1.69269,-1.40248 2.41797,-2.52734 z m 12.95117,0 c 0.18732,0.98707 0.53907,1.77146 1.07617,2.33008 0.67316,0.68634 1.70834,1.02931 3.10743,1.02929 0.39597,2e-5 0.74087,-0.0147 1.03125,-0.041 0.30357,-0.0265 0.58563,-0.058 0.84961,-0.0977 0.26396,-0.0396 0.52899,-0.0922 0.79297,-0.1582 0.26396,-0.066 0.56065,-0.13953 0.89062,-0.21875 v -2.84375 z m 11.58985,0 v 3.12109 h 5.5625 v -3.12109 z m 13.48242,0 v 3.12109 h 5.54297 v -3.12109 z m 10.64258,0 c 0.28792,0.70346 0.68924,1.31843 1.21679,1.83398 1.16151,1.12192 2.77738,1.6836 4.84961,1.6836 1.47828,0 2.74488,-0.33029 3.80078,-0.99024 0.88967,-0.54917 1.69269,-1.40248 2.41797,-2.52734 z m 12.94922,0 c 0.18727,0.98707 0.53904,1.77146 1.07617,2.33008 0.67314,0.68634 1.71029,1.02931 3.10937,1.02929 0.39597,2e-5 0.73892,-0.0147 1.0293,-0.041 0.30357,-0.0265 0.58758,-0.058 0.85156,-0.0977 0.26396,-0.0396 0.52704,-0.0922 0.79102,-0.1582 0.264,-0.066 0.56065,-0.13953 0.89062,-0.21875 v -2.84375 z m 10.24218,0 v 3.12109 h 4.53516 v -3.12109 z m 8.43555,0 v 3.12109 h 4.51367 v -3.12109 z m 8.41406,0 v 3.12109 h 4.51367 v -3.12109 z m 8.62305,0 c 0.28792,0.70346 0.68923,1.31843 1.2168,1.83398 1.16149,1.12192 2.77736,1.6836 4.84961,1.6836 1.47827,0 2.74682,-0.33029 3.80273,-0.99024 0.88966,-0.54917 1.69119,-1.40248 2.41602,-2.52734 z m 12.94922,0 c 0.18727,0.98707 0.53904,1.77146 1.07617,2.33008 0.67315,0.68634 1.71031,1.02931 3.10937,1.02929 0.39598,2e-5 0.73893,-0.0147 1.0293,-0.041 0.30357,-0.0265 0.58759,-0.058 0.85156,-0.0977 0.26397,-0.0396 0.52704,-0.0922 0.79102,-0.1582 0.26396,-0.066 0.56067,-0.13953 0.89062,-0.21875 v -2.84375 z m 13.08008,0 c 0.16286,0.21506 0.32829,0.42787 0.50976,0.62695 1.76866,1.92706 4.2765,2.89063 7.52344,2.89063 1.72906,0 3.28599,-0.31128 4.67187,-0.93164 1.34927,-0.6168 2.43713,-1.48128 3.27344,-2.58594 z m 22.84179,0 v 3.12109 h 5.56446 v -3.12109 z m 13.48243,0 v 3.12109 h 5.54492 v -3.12109 z m 11.32421,0 v 3.12109 h 5.72266 v -3.12109 z m 13.34766,0 c 0.16286,0.21506 0.32828,0.42787 0.50977,0.62695 1.76864,1.92706 4.27649,2.89063 7.52343,2.89063 1.72907,0 3.28599,-0.31128 4.67188,-0.93164 1.34925,-0.6168 2.43898,-1.48128 3.27539,-2.58594 z m 24.00977,0 c 0.16482,0.21532 0.33203,0.42851 0.51562,0.62695 1.79506,1.92706 4.31556,2.89063 7.5625,2.89063 3.36573,0 5.94713,-0.96357 7.74219,-2.89063 0.18361,-0.19846 0.35082,-0.41165 0.51562,-0.62695 z m 21.81836,0 v 3.12109 h 4.53515 v -3.12109 z m 8.43554,0 v 3.12109 h 4.51367 v -3.12109 z m 8.41406,0 v 3.12109 h 4.51368 v -3.12109 z"
         transform="scale(0.26458333)"
         inkscape:export-filename="/home/jana/src/janamach.github.io-src/local/logo.png"
         inkscape:export-xdpi="81.741257"
         inkscape:export-ydpi="81.741257" />
      <path
         id="path91519"
         style="font-weight:bold;font-family:'Liberation Mono';-inkscape-font-specification:'Liberation Mono Bold';fill:#ff0000;fill-opacity:1;stroke-width:1.01368"
         d="m 96.992188,285.74609 v 4.72852 h 5.583982 v -4.72852 z m 15.794922,0 c -0.58742,0.99292 -0.88672,2.21015 -0.88672,3.66016 0,0.37293 0.0261,0.7257 0.0644,1.06836 h 5.95118 c -0.13818,-0.41748 -0.21485,-0.91162 -0.21485,-1.50391 0,-0.83153 0.13886,-1.48382 0.41602,-1.95898 0.27719,-0.48837 0.68102,-0.83961 1.20898,-1.05078 0.21351,-0.0885 0.49245,-0.15732 0.80664,-0.21485 z m 11.78516,0 v 0.88868 c 0,1.5432 -0.42841,2.82387 -1.28516,3.83984 h 6.92773 c -0.0501,-0.38305 -0.0801,-0.823 -0.0801,-1.3457 v -3.38282 z m 12.39453,0 v 4.72852 h 5.5625 v -4.72852 z m 13.48242,0 v 4.72852 h 5.54297 v -4.72852 z m 11.0039,0 c -0.58691,0.99297 -0.88671,2.21005 -0.88671,3.66016 0,0.37293 0.026,0.7257 0.0645,1.06836 h 5.95117 c -0.13795,-0.41748 -0.21484,-0.91162 -0.21484,-1.50391 0,-0.83153 0.13886,-1.48382 0.41601,-1.95898 0.27719,-0.48837 0.67909,-0.83961 1.20703,-1.05078 0.21351,-0.0885 0.49245,-0.15732 0.80665,-0.21485 z m 11.78321,0 v 0.88868 c 0,1.5432 -0.42841,2.82387 -1.28516,3.83984 h 6.92774 c -0.0497,-0.38304 -0.0781,-0.82301 -0.0781,-1.3457 v -3.38282 z m 11.04687,0 v 4.72852 h 4.53516 v -4.72852 z m 8.43555,0 v 4.72852 h 4.51367 v -4.72852 z m 8.41406,0 v 4.72852 h 4.51367 v -4.72852 z m 8.98438,0 c -0.58693,0.99297 -0.88672,2.21005 -0.88672,3.66016 0,0.37293 0.0261,0.7257 0.0644,1.06836 h 5.95117 c -0.13795,-0.41748 -0.21484,-0.91162 -0.21484,-1.50391 0,-0.83153 0.13882,-1.48382 0.41602,-1.95898 0.27715,-0.48837 0.67906,-0.83961 1.20703,-1.05078 0.2135,-0.0885 0.49244,-0.15732 0.80664,-0.21485 z m 11.7832,0 v 0.88868 c 0,1.5432 -0.4284,2.82387 -1.28516,3.83984 h 6.92969 c -0.0501,-0.38305 -0.0801,-0.823 -0.0801,-1.3457 v -3.38282 z m 11.77149,0 c 0.0825,1.79511 0.41244,3.37533 1.00976,4.72852 h 6.07227 c -0.72158,-1.0481 -1.12316,-2.63772 -1.22852,-4.72852 z m 24.95507,0 v 4.72852 h 5.56446 v -4.72852 z m 13.48243,0 v 4.72852 h 5.54492 v -4.72852 z m 22.55859,0 c 0.0825,1.79511 0.41244,3.37533 1.00976,4.72852 H 301.75 c -0.72158,-1.0481 -1.12316,-2.63772 -1.22852,-4.72852 z m 23.97851,0 c 0.0933,1.8014 0.43383,3.38097 1.03321,4.72852 h 5.97461 c -0.037,-0.0528 -0.076,-0.1008 -0.11133,-0.15625 -0.62287,-1.00791 -0.9606,-2.55365 -1.04883,-4.57227 z m 14.79688,0 c -0.089,2.04135 -0.43315,3.59361 -1.06836,4.5918 -0.0314,0.0486 -0.0686,0.0901 -0.10156,0.13672 h 5.96484 c 0.59888,-1.34755 0.93815,-2.92712 1.03125,-4.72852 z m 9.16602,0 v 4.72852 h 4.53515 v -4.72852 z m 8.43554,0 v 4.72852 h 4.51367 v -4.72852 z m 8.41406,0 v 4.72852 h 4.51368 v -4.72852 z m -111.62109,2.33399 c -0.12688,0.97596 -0.4049,1.77198 -0.82812,2.39453 h 5.83789 c 0.2773,-0.67082 0.47024,-1.38174 0.57226,-2.13672 z m 60.99609,0 c -0.12684,0.97595 -0.40351,1.77199 -0.82617,2.39453 h 5.83789 c 0.27682,-0.67082 0.46828,-1.38174 0.57032,-2.13672 z m -25.40039,1.3457 v 1.04883 h 5.72266 v -1.04883 z"
         transform="scale(0.26458333)"
         inkscape:export-filename="/home/jana/src/janamach.github.io-src/local/logo.png"
         inkscape:export-xdpi="81.741257"
         inkscape:export-ydpi="81.741257" />
      <path
         id="path91664"
         style="font-weight:bold;font-family:'Liberation Mono';-inkscape-font-specification:'Liberation Mono Bold';fill:#000000;fill-opacity:1;stroke-width:1.01368"
         d="m 96.992188,279.15039 v 4.72852 h 5.583982 v -4.72852 z m 16.064452,0 c -0.0718,0.27451 -0.13592,0.55653 -0.18555,0.85156 l 5.80079,0.27735 c 0.0428,-0.42797 0.12145,-0.79629 0.2207,-1.12891 z m 11.20508,0 c 0.19933,0.60855 0.31055,1.34553 0.31055,2.23828 v 1.08789 l -4.41602,0.0801 c -2.33587,0.0336 -4.17404,0.47659 -5.52539,1.32227 h 15.50391 v -2.50977 c 0,-0.80379 -0.0795,-1.5384 -0.22266,-2.21875 z m 12.70508,0 v 4.72852 h 5.56836 c 0.0163,-1.73356 0.41892,-3.1745 1.2207,-4.3125 0.10511,-0.14846 0.21436,-0.28634 0.32812,-0.41602 z m 12.72656,0 c 0.50142,0.8725 0.75586,2.22188 0.75586,4.05859 v 0.66993 h 5.54297 v -2.01563 c 0,-0.99554 -0.0749,-1.89784 -0.22071,-2.71289 z m 12.02734,0 c -0.0718,0.27451 -0.13592,0.55653 -0.18554,0.85156 l 5.80078,0.27735 c 0.0428,-0.42797 0.12145,-0.79629 0.2207,-1.12891 z m 11.20508,0 c 0.19933,0.60855 0.31055,1.34553 0.31055,2.23828 v 1.08789 l -4.41406,0.0801 c -2.33588,0.0336 -4.17557,0.47659 -5.52735,1.32227 h 15.50586 v -2.50977 c 0,-0.80379 -0.0792,-1.5384 -0.22266,-2.21875 z m 11.35742,0 v 4.72852 h 4.53711 c 0.004,-1.94016 0.18659,-3.51327 0.54688,-4.72852 z m 8.23828,0 c 0.12889,0.79224 0.19727,1.87857 0.19727,3.28711 v 1.44141 h 4.51367 v -0.3125 c 0,-1.91357 0.16422,-3.36936 0.47461,-4.41602 z m 8.41407,0 c 0.12888,0.79224 0.19726,1.87857 0.19726,3.28711 v 1.44141 h 4.51367 v -2.68946 c 0,-0.7422 -0.0272,-1.41445 -0.0762,-2.03906 z m 9.45117,0 c -0.0718,0.27451 -0.13592,0.55653 -0.18555,0.85156 l 5.80078,0.27735 c 0.0428,-0.42797 0.1218,-0.79629 0.22071,-1.12891 z m 11.20508,0 c 0.19876,0.60855 0.30859,1.34553 0.30859,2.23828 v 1.08789 l -4.41406,0.0801 c -2.33587,0.0336 -4.17556,0.47659 -5.52735,1.32227 h 15.50586 v -2.50977 c 0,-0.80379 -0.0792,-1.5384 -0.22265,-2.21875 z m 13.09765,0 c -0.59107,1.35309 -0.92469,2.93442 -1.01562,4.72852 h 5.83984 c 0.0758,-2.07483 0.4404,-3.66561 1.1211,-4.72852 z m 12.30274,0 c 0.32965,0.53881 0.55786,1.17374 0.66601,1.92188 l 5.60352,-0.27735 c -0.11014,-0.5816 -0.26355,-1.12828 -0.45703,-1.64453 z m 11.63476,0 v 4.72852 h 5.57227 c 0.0189,-1.75001 0.41986,-3.1915 1.21875,-4.3125 0.10624,-0.14843 0.21732,-0.28656 0.33203,-0.41602 z m 12.75391,0 c 0.48406,0.79881 0.72851,2.13435 0.72852,4.01953 v 0.70899 h 5.54492 v -1.9961 c 0,-1.00582 -0.0753,-1.91418 -0.21875,-2.73242 z m 24.30469,0 c -0.59108,1.35309 -0.92469,2.93442 -1.01563,4.72852 h 5.83985 c 0.0758,-2.07483 0.44039,-3.66561 1.12109,-4.72852 z m 12.30468,0 c 0.33022,0.53881 0.55786,1.17374 0.66602,1.92188 l 5.60156,-0.27735 c -0.11013,-0.5816 -0.26355,-1.12828 -0.45703,-1.64453 z m 11.62696,0 c -0.57638,1.34954 -0.89834,2.92907 -0.97657,4.72852 h 5.84571 c 0.0758,-2.0704 0.41078,-3.64731 1.03711,-4.66797 0.0132,-0.0215 0.0291,-0.0396 0.043,-0.0605 z m 12.81445,0 c 0.0128,0.0212 0.0283,0.0389 0.041,0.0605 0.59186,1.00967 0.90901,2.58687 0.98046,4.66797 h 5.82422 c -0.0702,-1.81767 -0.36551,-3.39564 -0.88672,-4.72852 z m 10.17774,0 v 4.72852 h 4.5371 c 0.004,-1.94016 0.1866,-3.51327 0.54688,-4.72852 z m 8.23828,0 c 0.12888,0.79224 0.19726,1.87857 0.19726,3.28711 v 1.44141 h 4.51367 v -0.3125 c 0,-1.91357 0.16422,-3.36936 0.47461,-4.41602 z m 8.41406,0 c 0.12888,0.79224 0.19726,1.87857 0.19726,3.28711 v 1.44141 h 4.51368 v -2.68946 c 0,-0.7422 -0.0263,-1.41445 -0.0762,-2.03906 z"
         transform="scale(0.26458333)"
         inkscape:export-filename="/home/jana/src/janamach.github.io-src/local/logo.png"
         inkscape:export-xdpi="81.741257"
         inkscape:export-ydpi="81.741257" />
      <path
         id="path91698"
         style="font-weight:bold;font-family:'Liberation Mono';-inkscape-font-specification:'Liberation Mono Bold';fill:#000000;fill-opacity:1;stroke-width:1.01368"
         d="m 149.33984,273.62695 c -1.57067,0 -2.92348,0.37024 -4.05859,1.10938 -0.88284,0.57487 -1.6473,1.4294 -2.29883,2.54687 h 12.25977 c -0.98705,-2.43292 -2.9503,-3.65625 -5.90235,-3.65625 z m -27.46093,0.0195 c -4.00309,0 -6.69511,1.21306 -8.07813,3.63672 h 7.3418 c 0.16108,-0.0166 0.32179,-0.0332 0.5,-0.0332 0.12869,0 0.2396,0.0222 0.35937,0.0332 h 7.26758 c -0.32995,-0.63965 -0.75186,-1.19945 -1.27148,-1.67578 -1.41229,-1.30669 -3.45297,-1.96094 -6.11914,-1.96094 z m 48.66601,0 c -4.00304,0 -6.69456,1.2131 -8.07812,3.63672 h 7.33984 c 0.16108,-0.0166 0.32179,-0.0332 0.5,-0.0332 0.12869,0 0.23956,0.0222 0.35938,0.0332 h 7.26757 c -0.33029,-0.63965 -0.75185,-1.19945 -1.27148,-1.67578 -1.41229,-1.30669 -3.451,-1.96094 -6.11719,-1.96094 z m 22.19336,0 c -1.02952,0 -1.88787,0.31133 -2.57422,0.93164 -0.64531,0.57088 -1.18187,1.48086 -1.61718,2.70508 h 2.0371 c 0.13149,-0.057 0.2679,-0.0918 0.41211,-0.0918 0.18029,0 0.34155,0.0348 0.49024,0.0918 h 5.0332 c -0.25444,-1.19043 -0.64506,-2.0938 -1.1875,-2.68554 -0.56755,-0.63355 -1.43224,-0.95118 -2.59375,-0.95118 z m 8.55274,0 c -1.12192,0 -2.05188,0.29862 -2.79102,0.89258 -0.68049,0.55678 -1.27082,1.48005 -1.77734,2.74414 h 2.23437 c 0.14362,-0.0597 0.294,-0.0918 0.45313,-0.0918 0.18028,0 0.34152,0.0348 0.49023,0.0918 h 5.41602 c -0.16517,-0.79278 -0.389,-1.44341 -0.67969,-1.93359 -0.67315,-1.13511 -1.78823,-1.70313 -3.3457,-1.70313 z m 17.91796,0 c -4.00307,0 -6.6951,1.21306 -8.07812,3.63672 h 7.33984 c 0.16109,-0.0166 0.32179,-0.0332 0.5,-0.0332 0.1287,0 0.23953,0.0222 0.35938,0.0332 h 7.26758 c -0.3303,-0.63965 -0.75186,-1.19945 -1.27149,-1.67578 -1.41228,-1.30669 -3.451,-1.96094 -6.11719,-1.96094 z m 24.6875,0 c -3.27333,0 -5.80017,0.99087 -7.58203,2.97071 -0.19169,0.21158 -0.36801,0.43629 -0.53906,0.66601 h 16.04688 c -0.46081,-0.65353 -1.01431,-1.23434 -1.66797,-1.73632 -1.64987,-1.2671 -3.73682,-1.9004 -6.25782,-1.9004 z m 27.10547,0 c -1.57067,0 -2.92348,0.37024 -4.05859,1.10938 -0.87746,0.57137 -1.63814,1.41945 -2.28711,2.52734 h 12.26172 c -0.24798,-0.61934 -0.55375,-1.16306 -0.92774,-1.61718 -1.1087,-1.34631 -2.77085,-2.01954 -4.98828,-2.01954 z m 33.89258,0 c -3.27334,0 -5.80212,0.99087 -7.58398,2.97071 -0.1917,0.21158 -0.36801,0.43629 -0.53907,0.66601 h 16.04688 c -0.46081,-0.65368 -1.01431,-1.23434 -1.66797,-1.73632 -1.64987,-1.2671 -3.73486,-1.9004 -6.25586,-1.9004 z m 24.09375,0 c -3.35253,0 -5.91931,0.96358 -7.70117,2.89063 -0.21865,0.23648 -0.42339,0.48535 -0.61523,0.74609 h 16.73828 c -1.68309,-2.42094 -4.48651,-3.63672 -8.42188,-3.63672 z m 22.07617,0 c -1.02951,0 -1.88786,0.31133 -2.57422,0.93164 -0.6453,0.57088 -1.18185,1.48086 -1.61718,2.70508 h 2.03711 c 0.13149,-0.057 0.26789,-0.0918 0.41211,-0.0918 0.18028,0 0.34152,0.0348 0.49023,0.0918 h 5.0332 c -0.25443,-1.19043 -0.64506,-2.0938 -1.1875,-2.68554 -0.56755,-0.63355 -1.43224,-0.95118 -2.59375,-0.95118 z m 8.55274,0 c -1.12191,0 -2.05383,0.29862 -2.79297,0.89258 -0.68049,0.55678 -1.26908,1.48005 -1.77539,2.74414 h 2.23437 c 0.14363,-0.0597 0.29401,-0.0918 0.45313,-0.0918 0.18028,0 0.34156,0.0348 0.49023,0.0918 h 5.41602 c -0.16517,-0.79278 -0.389,-1.44341 -0.67969,-1.93359 -0.67315,-1.13511 -1.78823,-1.70313 -3.3457,-1.70313 z m -269.632815,0.39649 v 3.24023 h 12.591795 v -3.24023 z m 46.822265,0 c 0.0396,0.58075 0.0732,1.24133 0.0996,1.98047 0.0178,0.32538 0.0175,0.8497 0.0273,1.25976 h 5.39258 c -0.0166,-0.38996 -0.0185,-0.62991 -0.0547,-1.2207 -0.066,-1.09551 -0.11859,-1.76875 -0.1582,-2.01953 z m 47.35938,0 c 0.0617,0.43174 0.0903,1.63141 0.10351,3.24023 h 4.15235 v -0.72656 l -0.11915,-2.51367 z m 158.32421,0 c 0.0617,0.43174 0.0917,1.63141 0.10547,3.24023 h 4.15235 v -0.72656 l -0.11914,-2.51367 z"
         transform="scale(0.26458333)"
         inkscape:export-filename="/home/jana/src/janamach.github.io-src/local/logo.png"
         inkscape:export-xdpi="81.741257"
         inkscape:export-ydpi="81.741257" />
      <path
         style="font-weight:bold;font-family:'Liberation Mono';-inkscape-font-specification:'Liberation Mono Bold';fill:#000000;fill-opacity:1;stroke-width:0.268203"
         d="m 68.428379,72.113427 v 1.251085 h 1.44539 c 0.0159,-0.276209 0.02687,-0.555868 0.02687,-0.841808 v -0.409277 z"
         id="path15043"
         inkscape:export-filename="/home/jana/src/janamach.github.io-src/local/logo.png"
         inkscape:export-xdpi="81.741257"
         inkscape:export-ydpi="81.741257" />
      <path
         id="path15009"
         style="font-weight:bold;font-family:'Liberation Mono';-inkscape-font-specification:'Liberation Mono Bold';fill:#ff0000;fill-opacity:1;stroke-width:1.01368"
         d="m 97.013672,266.08398 v 4.09766 h 5.562498 v -4.09766 z m 161.613278,0 v 4.60352 h 5.56446 v -4.60352 z"
         transform="scale(0.26458333)"
         inkscape:export-filename="/home/jana/src/janamach.github.io-src/local/logo.png"
         inkscape:export-xdpi="81.741257"
         inkscape:export-ydpi="81.741257" />
      <path
         style="font-weight:bold;font-family:'Liberation Mono';-inkscape-font-specification:'Liberation Mono Bold';fill:#000000;fill-opacity:1;stroke-width:0.268203"
         d="m 23.227006,59.515727 v 1.081069 c 0.15715,0.05937 0.378713,0.111697 0.665075,0.157096 0.03319,0.0053 0.06565,0.0072 0.0987,0.01188 h 1.366325 c 0.229903,-0.0424 0.444539,-0.107526 0.640788,-0.199988 0.366683,-0.171119 0.647794,-0.419364 0.843361,-0.74414 0.05923,-0.0956 0.106693,-0.198906 0.148309,-0.305925 H 25.28011 c -0.162339,0.106019 -0.387303,0.159163 -0.675411,0.159163 -0.417088,0 -0.848574,-0.05419 -1.293461,-0.159163 z"
         id="path100291"
         inkscape:export-filename="/home/jana/src/janamach.github.io-src/local/logo-mobile.png"
         inkscape:export-xdpi="76.632431"
         inkscape:export-ydpi="76.632431" />
      <path
         style="font-weight:bold;font-family:'Liberation Mono';-inkscape-font-specification:'Liberation Mono Bold';fill:#000000;fill-opacity:1;stroke-width:0.268203"
         d="m 32.578876,57.770104 v 0.825789 h 1.194241 v -0.825789 z"
         id="path100455"
         inkscape:export-filename="/home/jana/src/janamach.github.io-src/local/logo-mobile.png"
         inkscape:export-xdpi="76.632431"
         inkscape:export-ydpi="76.632431" />
      <path
         style="font-weight:bold;font-family:'Liberation Mono';-inkscape-font-specification:'Liberation Mono Bold';fill:#000000;fill-opacity:1;stroke-width:0.268203"
         d="m 30.352656,57.770104 v 0.825789 h 1.194241 v -0.825789 z"
         id="path100453"
         inkscape:export-filename="/home/jana/src/janamach.github.io-src/local/logo-mobile.png"
         inkscape:export-xdpi="76.632431"
         inkscape:export-ydpi="76.632431" />
      <path
         style="font-weight:bold;font-family:'Liberation Mono';-inkscape-font-specification:'Liberation Mono Bold';fill:#000000;fill-opacity:1;stroke-width:0.268203"
         d="m 28.12075,57.770104 v 0.825789 h 1.199927 v -0.825789 z"
         id="path100451"
         inkscape:export-filename="/home/jana/src/janamach.github.io-src/local/logo-mobile.png"
         inkscape:export-xdpi="76.632431"
         inkscape:export-ydpi="76.632431" />
      <path
         style="font-weight:bold;font-family:'Liberation Mono';-inkscape-font-specification:'Liberation Mono Bold';fill:#000000;fill-opacity:1;stroke-width:0.268203"
         d="m 25.662516,57.770104 v 0.773597 c 0,0.181782 -0.01921,0.33981 -0.05581,0.476972 h 1.508954 c 0.01513,-0.114355 0.02429,-0.232378 0.02429,-0.356566 v -0.894003 z"
         id="path100293"
         inkscape:export-filename="/home/jana/src/janamach.github.io-src/local/logo-mobile.png"
         inkscape:export-xdpi="76.632431"
         inkscape:export-ydpi="76.632431" />
      <path
         style="font-weight:bold;font-family:'Liberation Mono';-inkscape-font-specification:'Liberation Mono Bold';fill:#ff0000;fill-opacity:1;stroke-width:0.268203"
         d="m 32.578876,56.024473 v 1.251088 h 1.194241 v -1.251088 z"
         id="path100407"
         inkscape:export-filename="/home/jana/src/janamach.github.io-src/local/logo-mobile.png"
         inkscape:export-xdpi="76.632431"
         inkscape:export-ydpi="76.632431" />
      <path
         style="font-weight:bold;font-family:'Liberation Mono';-inkscape-font-specification:'Liberation Mono Bold';fill:#ff0000;fill-opacity:1;stroke-width:0.268203"
         d="m 30.352656,56.024473 v 1.251088 h 1.194241 v -1.251088 z"
         id="path100405"
         inkscape:export-filename="/home/jana/src/janamach.github.io-src/local/logo-mobile.png"
         inkscape:export-xdpi="76.632431"
         inkscape:export-ydpi="76.632431" />
      <path
         style="font-weight:bold;font-family:'Liberation Mono';-inkscape-font-specification:'Liberation Mono Bold';fill:#ff0000;fill-opacity:1;stroke-width:0.268203"
         d="m 28.12075,56.024473 v 1.251088 h 1.199927 v -1.251088 z"
         id="path100403"
         inkscape:export-filename="/home/jana/src/janamach.github.io-src/local/logo-mobile.png"
         inkscape:export-xdpi="76.632431"
         inkscape:export-ydpi="76.632431" />
      <path
         style="font-weight:bold;font-family:'Liberation Mono';-inkscape-font-specification:'Liberation Mono Bold';fill:#ff0000;fill-opacity:1;stroke-width:0.268203"
         d="m 25.662516,56.024473 v 1.251088 h 1.477429 v -1.251088 z"
         id="path100295"
         inkscape:export-filename="/home/jana/src/janamach.github.io-src/local/logo-mobile.png"
         inkscape:export-xdpi="76.632431"
         inkscape:export-ydpi="76.632431" />
      <path
         style="font-weight:bold;font-family:'Liberation Mono';-inkscape-font-specification:'Liberation Mono Bold';fill:#000000;fill-opacity:1;stroke-width:0.268203"
         d="m 32.526684,54.279361 c 0.0341,0.209614 0.05219,0.497038 0.05219,0.869715 v 0.381373 h 1.194241 v -0.711587 c 0,-0.196373 -0.0072,-0.37424 -0.02016,-0.539501 z"
         id="path100361"
         inkscape:export-filename="/home/jana/src/janamach.github.io-src/local/logo-mobile.png"
         inkscape:export-xdpi="76.632431"
         inkscape:export-ydpi="76.632431" />
      <path
         style="font-weight:bold;font-family:'Liberation Mono';-inkscape-font-specification:'Liberation Mono Bold';fill:#000000;fill-opacity:1;stroke-width:0.268203"
         d="m 30.300461,54.279361 c 0.0341,0.209614 0.0522,0.497038 0.0522,0.869715 v 0.381373 h 1.194241 v -0.08268 c 0,-0.506298 0.04345,-0.891476 0.125574,-1.168405 z"
         id="path100359"
         inkscape:export-filename="/home/jana/src/janamach.github.io-src/local/logo-mobile.png"
         inkscape:export-xdpi="76.632431"
         inkscape:export-ydpi="76.632431" />
      <path
         style="font-weight:bold;font-family:'Liberation Mono';-inkscape-font-specification:'Liberation Mono Bold';fill:#000000;fill-opacity:1;stroke-width:0.268203"
         d="m 28.12075,54.279361 v 1.251088 h 1.200443 c 0.0011,-0.513334 0.04937,-0.929553 0.144696,-1.251088 z"
         id="path100357"
         inkscape:export-filename="/home/jana/src/janamach.github.io-src/local/logo-mobile.png"
         inkscape:export-xdpi="76.632431"
         inkscape:export-ydpi="76.632431" />
      <path
         style="font-weight:bold;font-family:'Liberation Mono';-inkscape-font-specification:'Liberation Mono Bold';fill:#000000;fill-opacity:1;stroke-width:0.268203"
         d="m 25.662516,54.279361 v 1.251088 h 1.477429 v -1.251088 z"
         id="path100297"
         inkscape:export-filename="/home/jana/src/janamach.github.io-src/local/logo-mobile.png"
         inkscape:export-xdpi="76.632431"
         inkscape:export-ydpi="76.632431" />
      <path
         style="font-weight:bold;font-family:'Liberation Mono';-inkscape-font-specification:'Liberation Mono Bold';fill:#000000;fill-opacity:1;stroke-width:0.268203"
         d="m 28.089746,52.928056 c 0.01633,0.114231 0.02389,0.431644 0.02739,0.857311 h 1.098642 v -0.192236 l -0.03153,-0.665075 z"
         id="path100339"
         inkscape:export-filename="/home/jana/src/janamach.github.io-src/local/logo-mobile.png"
         inkscape:export-xdpi="76.632431"
         inkscape:export-ydpi="76.632431" />
      <path
         style="font-weight:bold;font-family:'Liberation Mono';-inkscape-font-specification:'Liberation Mono Bold';fill:#000000;fill-opacity:1;stroke-width:0.268203"
         d="m 23.808366,52.928056 v 0.857311 h 3.331579 v -0.857311 z"
         id="path100335"
         inkscape:export-filename="/home/jana/src/janamach.github.io-src/local/logo-mobile.png"
         inkscape:export-xdpi="76.632431"
         inkscape:export-ydpi="76.632431" />
      <path
         style="font-weight:bold;font-family:'Liberation Mono';-inkscape-font-specification:'Liberation Mono Bold';fill:#000000;fill-opacity:1;stroke-width:0.268203"
         d="m 32.620735,52.823151 c -0.296841,0 -0.542893,0.07901 -0.738457,0.236162 -0.180046,0.147315 -0.336238,0.391597 -0.470255,0.726054 h 0.591178 c 0.038,-0.0158 0.07779,-0.02429 0.11989,-0.02429 0.0477,0 0.09036,0.0092 0.129707,0.02429 h 1.432988 c -0.0437,-0.209757 -0.102922,-0.381902 -0.179834,-0.511596 -0.178104,-0.300331 -0.473136,-0.45062 -0.885217,-0.45062 z"
         id="path100319"
         inkscape:export-filename="/home/jana/src/janamach.github.io-src/local/logo-mobile.png"
         inkscape:export-xdpi="76.632431"
         inkscape:export-ydpi="76.632431" />
      <path
         style="font-weight:bold;font-family:'Liberation Mono';-inkscape-font-specification:'Liberation Mono Bold';fill:#000000;fill-opacity:1;stroke-width:0.268203"
         d="m 30.357823,52.823151 c -0.272394,0 -0.499499,0.08237 -0.681096,0.246497 -0.170738,0.151045 -0.312703,0.391811 -0.427879,0.715719 h 0.538983 c 0.03479,-0.01508 0.07088,-0.02429 0.109038,-0.02429 0.0477,0 0.09037,0.0092 0.129709,0.02429 h 1.331701 C 31.290959,53.470358 31.187607,53.231341 31.044086,53.074777 30.893922,52.90715 30.665139,52.82311 30.357823,52.82311 Z"
         id="path100317"
         inkscape:export-filename="/home/jana/src/janamach.github.io-src/local/logo-mobile.png"
         inkscape:export-xdpi="76.632431"
         inkscape:export-ydpi="76.632431" />
      <path
         style="font-weight:bold;font-family:'Liberation Mono';-inkscape-font-specification:'Liberation Mono Bold';fill:#ff0000;fill-opacity:1;stroke-width:0.268203"
         d="m 25.6682,50.822207 v 1.084172 h 1.471745 v -1.084172 z"
         id="path100303"
         inkscape:export-filename="/home/jana/src/janamach.github.io-src/local/logo-mobile.png"
         inkscape:export-xdpi="76.632431"
         inkscape:export-ydpi="76.632431" />
    </g>
    <g
       aria-label="janamach.com"
       id="g14480"
       style="font-size:10.7281px;line-height:1.25;stroke-width:0.268204"
       transform="translate(0,39.158352)">
      <path
         id="path14478"
         style="font-weight:bold;font-family:'Liberation Mono';-inkscape-font-specification:'Liberation Mono Bold';stroke-width:1.01368"
         d="m 97.013672,266.08398 v 4.09766 h 5.562498 v -4.09766 z m 161.613278,0 v 29.38086 h 5.56446 v -11.46289 c 0,-1.80825 0.40823,-3.28724 1.22656,-4.43554 0.83153,-1.16151 1.92128,-1.74219 3.26758,-1.74219 1.2143,0 2.08532,0.39556 2.61328,1.1875 0.54116,0.77874 0.81055,2.16516 0.81055,4.1582 v 12.29492 h 5.54492 v -13.58203 c 0,-2.79817 -0.55536,-4.8705 -1.66407,-6.21679 -1.10871,-1.3463 -2.77085,-2.01954 -4.98828,-2.01954 -1.57067,0 -2.92348,0.37024 -4.05859,1.10938 -1.13511,0.73914 -2.07969,1.92778 -2.83203,3.56445 h -0.0801 c 0.1056,-1.37269 0.16016,-2.78006 0.16016,-4.21875 v -8.01758 z m -109.28711,7.54297 c -1.57067,0 -2.92348,0.37024 -4.05859,1.10938 -1.13511,0.73914 -2.07969,1.92583 -2.83203,3.5625 h -0.0781 c 0,-0.40917 -0.0336,-1.15402 -0.0996,-2.23633 -0.066,-1.09551 -0.11859,-1.76875 -0.1582,-2.01953 h -5.30664 c 0.0396,0.58075 0.0732,1.24133 0.0996,1.98047 0.0396,0.72594 0.0606,1.66224 0.0606,2.81054 v 16.63086 h 5.5625 v -11.48242 c 0,-1.78185 0.40823,-3.25451 1.22656,-4.41601 0.83153,-1.17471 1.93395,-1.76172 3.30664,-1.76172 1.2407,0 2.11172,0.43551 2.61328,1.30664 0.51476,0.87113 0.77344,2.2366 0.77344,4.09765 v 12.25586 h 5.54297 v -13.60156 c 0,-5.49076 -2.2175,-8.23633 -6.65235,-8.23633 z m -27.46093,0.0195 c -5.29278,0 -8.29508,2.11861 -9.00782,6.35547 l 5.80079,0.27735 c 0.10559,-1.05592 0.38326,-1.82172 0.83203,-2.29688 0.46196,-0.48836 1.17515,-0.73242 2.13867,-0.73242 1.02951,0 1.77436,0.34929 2.23633,1.04883 0.46196,0.69954 0.69336,1.73035 0.69336,3.08984 v 1.08789 l -4.41602,0.0801 c -2.74538,0.0396 -4.80943,0.63928 -6.19531,1.80078 -1.37269,1.14831 -2.06055,2.83141 -2.06055,5.04883 0,2.04584 0.58068,3.63638 1.74219,4.77148 1.1615,1.12191 2.77933,1.6836 4.85156,1.6836 1.47828,0 2.74487,-0.33029 3.80078,-0.99024 1.06911,-0.65994 2.02003,-1.73508 2.85156,-3.22656 h 0.11914 c 0.13199,1.33309 0.52756,2.34295 1.1875,3.0293 0.67315,0.68634 1.70834,1.02929 3.10743,1.02929 0.39597,1e-5 0.74087,-0.0146 1.03125,-0.041 0.30357,-0.0264 0.58563,-0.058 0.84961,-0.0977 0.26398,-0.0396 0.52899,-0.0922 0.79297,-0.1582 0.26397,-0.066 0.56065,-0.13956 0.89062,-0.21875 v -3.00977 c -0.39597,0.0792 -0.8042,0.11915 -1.22656,0.11915 -0.63355,-10e-6 -1.09001,-0.22311 -1.36719,-0.67188 -0.26398,-0.46196 -0.39648,-1.29499 -0.39648,-2.49609 v -7.75977 c 0,-2.5342 -0.71124,-4.45502 -2.13672,-5.76172 -1.41229,-1.30669 -3.45296,-1.96094 -6.11914,-1.96094 z m 48.66601,0 c -5.29278,0 -8.29702,2.11861 -9.00976,6.35547 l 5.80078,0.27735 c 0.10559,-1.05592 0.38327,-1.82172 0.83203,-2.29688 0.46196,-0.48836 1.17515,-0.73242 2.13867,-0.73242 1.02952,0 1.77436,0.34929 2.23633,1.04883 0.46196,0.69954 0.69336,1.73035 0.69336,3.08984 v 1.08789 l -4.41406,0.0801 c -2.74539,0.0396 -4.81138,0.63928 -6.19727,1.80078 -1.37269,1.14831 -2.05859,2.83141 -2.05859,5.04883 0,2.04584 0.58068,3.63638 1.74218,4.77148 1.16151,1.12191 2.77738,1.6836 4.84961,1.6836 1.47828,0 2.74487,-0.33029 3.80078,-0.99024 1.06912,-0.65994 2.02003,-1.73508 2.85157,-3.22656 h 0.11914 c 0.13199,1.33309 0.52755,2.34295 1.1875,3.0293 0.67314,0.68634 1.71028,1.02929 3.10937,1.02929 0.39597,1e-5 0.73892,-0.0146 1.0293,-0.041 0.30357,-0.0264 0.58758,-0.058 0.85156,-0.0977 0.26398,-0.0396 0.52704,-0.0922 0.79102,-0.1582 0.26398,-0.066 0.56065,-0.13956 0.89062,-0.21875 v -3.00977 c -0.39597,0.0792 -0.8042,0.11915 -1.22656,0.11915 -0.63355,-10e-6 -1.09001,-0.22311 -1.36719,-0.67188 -0.26398,-0.46196 -0.39453,-1.29499 -0.39453,-2.49609 v -7.75977 c 0,-2.5342 -0.71319,-4.45502 -2.13867,-5.76172 -1.41229,-1.30669 -3.451,-1.96094 -6.11719,-1.96094 z m 22.19336,0 c -1.02952,0 -1.88787,0.3113 -2.57422,0.93164 -0.68634,0.60716 -1.25436,1.5834 -1.70312,2.92969 h -0.0391 v -0.95117 l -0.11915,-2.51367 h -4.13671 c 0.0792,0.55435 0.11718,2.07962 0.11718,4.57422 v 16.84765 h 4.53516 v -11.52343 c 0,-2.01944 0.19145,-3.64798 0.57422,-4.88868 0.39597,-1.2407 0.93037,-1.86132 1.60351,-1.86132 0.65995,0 1.10813,0.3829 1.34571,1.14843 0.25078,0.76554 0.37695,2.13102 0.37695,4.09766 v 13.02734 h 4.51367 v -11.89843 c 0,-2.12503 0.19145,-3.71557 0.57422,-4.77149 0.39597,-1.06911 0.93037,-1.60351 1.60352,-1.60351 0.65994,0 1.10812,0.3829 1.3457,1.14843 0.25078,0.76554 0.37695,2.13102 0.37695,4.09766 v 13.02734 h 4.51367 v -14.27539 c 0,-2.75858 -0.33661,-4.70473 -1.00976,-5.83984 -0.67315,-1.13511 -1.78823,-1.70313 -3.3457,-1.70313 -1.12191,0 -2.05188,0.29863 -2.79102,0.89258 -0.72594,0.59396 -1.3529,1.5892 -1.88086,2.98828 h -0.041 c -0.25077,-1.31989 -0.66533,-2.29613 -1.24609,-2.92968 -0.56755,-0.63355 -1.43224,-0.95118 -2.59375,-0.95118 z m 26.4707,0 c -5.29277,0 -8.29506,2.11861 -9.00781,6.35547 l 5.80078,0.27735 c 0.10559,-1.05592 0.38132,-1.82172 0.83008,-2.29688 0.46197,-0.48836 1.17515,-0.73242 2.13867,-0.73242 1.02952,0 1.77632,0.34929 2.23828,1.04883 0.46197,0.69954 0.69141,1.73035 0.69141,3.08984 v 1.08789 l -4.41406,0.0801 c -2.74538,0.0396 -4.81138,0.63928 -6.19727,1.80078 -1.37269,1.14831 -2.05859,2.83141 -2.05859,5.04883 0,2.04584 0.58068,3.63638 1.74219,4.77148 1.1615,1.12191 2.77737,1.6836 4.84961,1.6836 1.47828,0 2.74682,-0.33029 3.80273,-0.99024 1.06911,-0.65994 2.01808,-1.73508 2.84961,-3.22656 h 0.11914 c 0.13199,1.33309 0.52755,2.34295 1.1875,3.0293 0.67315,0.68634 1.71029,1.02929 3.10937,1.02929 0.39597,1e-5 0.73893,-0.0146 1.0293,-0.041 0.30358,-0.0264 0.58759,-0.058 0.85156,-0.0977 0.26398,-0.0396 0.52704,-0.0922 0.79102,-0.1582 0.26398,-0.066 0.56065,-0.13956 0.89062,-0.21875 v -3.00977 c -0.39596,0.0792 -0.80419,0.11915 -1.22656,0.11915 -0.63355,-10e-6 -1.08805,-0.22311 -1.36523,-0.67188 -0.26398,-0.46196 -0.39649,-1.29499 -0.39649,-2.49609 v -7.75977 c 0,-2.5342 -0.71318,-4.45502 -2.13867,-5.76172 -1.41228,-1.30669 -3.451,-1.96094 -6.11719,-1.96094 z m 24.6875,0 c -3.27333,0 -5.80017,0.99087 -7.58203,2.97071 -1.78186,1.96664 -2.67187,4.71854 -2.67187,8.25586 0,3.45812 0.88368,6.15741 2.65234,8.09765 1.76866,1.92705 4.2765,2.89063 7.52344,2.89063 1.72906,0 3.28598,-0.31129 4.67187,-0.93164 1.38589,-0.63355 2.50098,-1.52357 3.34571,-2.67188 0.85794,-1.14831 1.38601,-2.45484 1.58398,-3.91992 l -5.58203,-0.25781 c -0.17158,1.31989 -0.61538,2.31709 -1.32812,2.99023 -0.71275,0.65995 -1.59643,0.99024 -2.65235,0.99024 -2.91696,0 -4.375,-2.46985 -4.375,-7.40625 0,-4.79122 1.43271,-7.18555 4.29688,-7.18555 1.1615,0 2.05785,0.33029 2.6914,0.99023 0.63355,0.64675 1.02912,1.51777 1.1875,2.61329 l 5.60352,-0.27735 c -0.42237,-2.23062 -1.45755,-3.98095 -3.10742,-5.24804 -1.64987,-1.2671 -3.73682,-1.9004 -6.25782,-1.9004 z m 72.99805,0 c -3.27334,0 -5.80212,0.99087 -7.58398,2.97071 -1.78186,1.96664 -2.67188,4.71854 -2.67188,8.25586 0,3.45812 0.88369,6.15741 2.65235,8.09765 1.76865,1.92705 4.27649,2.89063 7.52343,2.89063 1.72907,0 3.28599,-0.31129 4.67188,-0.93164 1.38589,-0.63355 2.50292,-1.52357 3.34765,-2.67188 0.85792,-1.14831 1.38404,-2.45484 1.58204,-3.91992 l -5.58204,-0.25781 c -0.17158,1.31989 -0.61342,2.31709 -1.32617,2.99023 -0.71274,0.65995 -1.59838,0.99024 -2.65429,0.99024 -2.91697,0 -4.375,-2.46985 -4.375,-7.40625 0,-4.79122 1.4327,-7.18555 4.29687,-7.18555 1.16151,0 2.05786,0.33029 2.69141,0.99023 0.63354,0.64675 1.03106,1.51777 1.18945,2.61329 l 5.60156,-0.27735 c -0.42236,-2.23062 -1.45755,-3.98095 -3.10742,-5.24804 -1.64987,-1.2671 -3.73486,-1.9004 -6.25586,-1.9004 z m 24.09375,0 c -3.35253,0 -5.91931,0.96358 -7.70117,2.89063 -1.78186,1.92704 -2.67383,4.65995 -2.67383,8.19727 0,3.55051 0.8983,6.29608 2.69336,8.23632 1.79506,1.92705 4.31556,2.89063 7.5625,2.89063 3.36573,0 5.94713,-0.96358 7.74219,-2.89063 1.79505,-1.94024 2.6914,-4.68581 2.6914,-8.23632 0,-7.39141 -3.4378,-11.0879 -10.31445,-11.0879 z m 22.07617,0 c -1.02951,0 -1.88787,0.3113 -2.57422,0.93164 -0.68634,0.60716 -1.25436,1.5834 -1.70312,2.92969 h -0.0391 v -0.95117 l -0.11914,-2.51367 h -4.13868 c 0.0792,0.55435 0.11915,2.07962 0.11915,4.57422 v 16.84765 h 4.53515 v -11.52343 c 0,-2.01944 0.19145,-3.64798 0.57422,-4.88868 0.39597,-1.2407 0.93037,-1.86132 1.60352,-1.86132 0.65994,0 1.10812,0.3829 1.3457,1.14843 0.25078,0.76554 0.37695,2.13102 0.37695,4.09766 v 13.02734 h 4.51367 v -11.89843 c 0,-2.12503 0.19145,-3.71557 0.57422,-4.77149 0.39597,-1.06911 0.93037,-1.60351 1.60352,-1.60351 0.65994,0 1.10812,0.3829 1.3457,1.14843 0.25079,0.76554 0.37695,2.13102 0.37695,4.09766 v 13.02734 h 4.51368 v -14.27539 c 0,-2.75858 -0.33662,-4.70473 -1.00977,-5.83984 -0.67315,-1.13511 -1.78823,-1.70313 -3.3457,-1.70313 -1.12191,0 -2.05383,0.29863 -2.79297,0.89258 -0.72594,0.59396 -1.35095,1.5892 -1.87891,2.98828 h -0.041 c -0.25078,-1.31989 -0.66534,-2.29613 -1.2461,-2.92968 -0.56755,-0.63355 -1.43224,-0.95118 -2.59375,-0.95118 z m -273.080075,0.39649 v 3.76172 h 7.007813 v 17.46289 c 0,1.43868 -0.303006,2.50748 -0.910157,3.20703 -0.607153,0.71274 -1.636008,1.06836 -3.08789,1.06836 -1.676266,0 -3.411975,-0.22311 -5.207032,-0.67188 v 4.15625 c 0.593953,0.22438 1.431359,0.42216 2.513672,0.59375 1.082313,0.17159 2.144784,0.25782 3.1875,0.25782 1.808257,0 3.398795,-0.32201 4.771485,-0.96875 1.385887,-0.64675 2.448354,-1.585 3.187504,-2.8125 0.75234,-1.21431 1.1289,-2.67234 1.1289,-4.375 v -21.67969 z m 251.083985,3.42578 c 1.59707,0 2.73115,0.58068 3.4043,1.74219 0.67314,1.1483 1.00976,2.98924 1.00976,5.52344 0,2.57379 -0.36828,4.442 -1.10742,5.60351 -0.73914,1.14831 -1.92778,1.72266 -3.56445,1.72266 -1.43869,0 -2.52844,-0.58068 -3.26758,-1.74219 -0.72595,-1.17471 -1.08789,-3.03659 -1.08789,-5.58398 0,-2.521 0.35561,-4.36194 1.06836,-5.52344 0.72594,-1.16151 1.90825,-1.74219 3.54492,-1.74219 z m -216.49609,8.07813 v 1.08789 c 0,1.54427 -0.42918,2.82548 -1.28711,3.84179 -0.85793,1.00312 -1.92674,1.50391 -3.20704,1.50391 -1.58387,0 -2.37695,-1.00353 -2.37695,-3.00977 0,-0.83153 0.13884,-1.48382 0.41602,-1.95898 0.27718,-0.48837 0.68102,-0.83961 1.20898,-1.05078 0.54116,-0.22438 1.40585,-0.3486 2.59375,-0.375 z m 48.66406,0 v 1.08789 c 0,1.54427 -0.42918,2.82548 -1.28711,3.84179 -0.85793,1.00312 -1.92674,1.50391 -3.20703,1.50391 -1.58388,0 -2.375,-1.00353 -2.375,-3.00977 0,-0.83153 0.13884,-1.48382 0.41601,-1.95898 0.27718,-0.48837 0.67908,-0.83961 1.20703,-1.05078 0.54116,-0.22438 1.40585,-0.3486 2.59375,-0.375 z m 48.66406,0 v 1.08789 c 0,1.54427 -0.42918,2.82548 -1.28711,3.84179 -0.85793,1.00312 -1.92673,1.50391 -3.20703,1.50391 -1.58387,0 -2.375,-1.00353 -2.375,-3.00977 0,-0.83153 0.13884,-1.48382 0.41602,-1.95898 0.27717,-0.48837 0.67907,-0.83961 1.20703,-1.05078 0.54115,-0.22438 1.40584,-0.3486 2.59375,-0.375 z m 67.5332,3.8789 v 6.03906 h 5.72266 v -6.03906 z"
         transform="scale(0.26458333)" />
      <text
         xml:space="preserve"
         style="font-style:normal;font-weight:normal;font-size:10.5833px;line-height:1.25;font-family:sans-serif;fill:#000000;fill-opacity:1;stroke:none;stroke-width:0.0709623"
         x="23.944338"
         y="169.68494"
         id="text61464"><tspan
           sodipodi:role="line"
           id="tspan61462"
           style="font-style:normal;font-variant:normal;font-weight:normal;font-stretch:normal;font-family:Dyuthi;-inkscape-font-specification:Dyuthi;stroke-width:0.0709623"
           x="23.944338"
           y="169.68494">janamach.com</tspan></text>
    </g>
    <g
       aria-label="janamach.com"
       id="g31555"
       style="font-size:10.7281px;line-height:1.25;stroke-width:0.268204"
       transform="translate(-5.9033345,72.305928)">
      <path
         style="font-weight:bold;font-family:'Liberation Mono';-inkscape-font-specification:'Liberation Mono Bold';fill:#359400;fill-opacity:1;stroke-width:1.01368"
         d="m 87.787109,298.94138 v 4.08593 c 0.593953,0.22438 1.431359,0.42216 2.513672,0.59375 0.125442,0.0199 0.248138,0.0273 0.373047,0.0449 h 5.164063 c 0.868922,-0.16027 1.680145,-0.4064 2.421875,-0.75586 1.385887,-0.64675 2.448354,-1.585 3.187504,-2.8125 0.22385,-0.36131 0.40325,-0.75177 0.56054,-1.15625 h -6.460935 c -0.613565,0.4007 -1.463823,0.60156 -2.552734,0.60156 -1.576399,0 -3.20721,-0.20481 -4.888672,-0.60156 z"
         transform="scale(0.26458333)"
         id="path31543" />
      <path
         id="path31545"
         style="font-weight:bold;font-family:'Liberation Mono';-inkscape-font-specification:'Liberation Mono Bold';fill:#359400;fill-opacity:1;stroke-width:0.268203"
         d="m 25.662516,77.349283 v 0.773597 c 0,0.181782 -0.01921,0.339809 -0.05581,0.476972 h 1.508953 c 0.01513,-0.114356 0.02429,-0.232378 0.02429,-0.356566 v -0.894003 z m 4.083471,0 c 0.07618,0.186124 0.182361,0.348832 0.321945,0.48524 0.307313,0.296839 0.735364,0.445453 1.283642,0.445453 0.391128,0 0.726247,-0.08739 1.005623,-0.262001 0.235389,-0.145301 0.447857,-0.371073 0.639754,-0.668692 z m 3.426664,0 c 0.04956,0.261162 0.142626,0.468699 0.284736,0.6165 0.178105,0.181594 0.451999,0.272336 0.822174,0.272333 0.104767,3e-6 0.196022,-0.0039 0.272852,-0.01085 0.08032,-0.007 0.154948,-0.01535 0.224793,-0.02585 0.06984,-0.01048 0.139962,-0.02439 0.209806,-0.04186 0.06984,-0.01746 0.148339,-0.03692 0.235643,-0.05788 v -0.752409 z m 3.066481,0 v 0.825788 h 1.471744 v -0.825788 z m 3.567223,0 v 0.825788 h 1.466578 v -0.825788 z m 2.81585,0 c 0.07618,0.186124 0.182361,0.348832 0.321942,0.48524 0.307316,0.296839 0.734848,0.445453 1.283126,0.445453 0.391128,0 0.726247,-0.08739 1.005623,-0.262001 0.235392,-0.145301 0.447857,-0.371073 0.639754,-0.668692 z m 3.426147,0 c 0.04955,0.261162 0.142621,0.468699 0.284737,0.6165 0.178102,0.181594 0.452512,0.272336 0.822687,0.272333 0.104767,3e-6 0.195506,-0.0039 0.272336,-0.01085 0.08032,-0.007 0.155464,-0.01535 0.225309,-0.02585 0.06984,-0.01048 0.139446,-0.02439 0.20929,-0.04186 0.06985,-0.01746 0.148339,-0.03692 0.235644,-0.05788 v -0.752409 z m 2.70991,0 v 0.825788 h 1.199928 v -0.825788 z m 2.231906,0 v 0.825788 h 1.194242 v -0.825788 z m 2.22622,0 v 0.825788 h 1.194242 v -0.825788 z m 2.281516,0 c 0.07618,0.186124 0.182361,0.348832 0.321945,0.48524 0.307313,0.296839 0.734845,0.445453 1.283126,0.445453 0.391128,0 0.726762,-0.08739 1.006139,-0.262001 0.235389,-0.145301 0.44746,-0.371073 0.639238,-0.668692 z m 3.426147,0 c 0.04955,0.261162 0.142621,0.468699 0.284737,0.6165 0.178104,0.181594 0.452519,0.272336 0.822687,0.272333 0.104768,3e-6 0.195509,-0.0039 0.272336,-0.01085 0.08032,-0.007 0.155467,-0.01535 0.225309,-0.02585 0.06984,-0.01048 0.139446,-0.02439 0.20929,-0.04186 0.06984,-0.01746 0.148344,-0.03692 0.235644,-0.05788 v -0.752409 z m 3.460771,0 c 0.04309,0.0569 0.08686,0.113205 0.134874,0.16588 0.467958,0.509866 1.131491,0.764813 1.990577,0.764813 0.457481,0 0.869416,-0.08236 1.236099,-0.246497 0.356992,-0.163195 0.644824,-0.391921 0.866098,-0.684196 z m 6.043557,0 v 0.825788 h 1.472264 v -0.825788 z m 3.567227,0 v 0.825788 h 1.467093 v -0.825788 z m 4.583697,0 v 0.825788 h 1.51412 v -0.825788 z m 5.119068,0 c 0.04309,0.0569 0.08686,0.113205 0.134877,0.16588 0.467955,0.509866 1.131488,0.764813 1.990574,0.764813 0.457483,0 0.869418,-0.08236 1.236101,-0.246497 0.356989,-0.163195 0.645314,-0.391921 0.866614,-0.684196 z m 6.352585,0 c 0.04361,0.05697 0.08785,0.113374 0.136424,0.16588 0.474943,0.509866 1.141826,0.764813 2.000912,0.764813 0.890516,0 1.573511,-0.254947 2.048454,-0.764813 0.04858,-0.05251 0.09282,-0.108915 0.136425,-0.16588 z m 5.772774,0 v 0.825788 h 1.199925 v -0.825788 z m 2.231904,0 v 0.825788 h 1.194241 v -0.825788 z m 2.22622,0 v 0.825788 h 1.194249 v -0.825788 z" />
      <path
         id="path31547"
         style="font-weight:bold;font-family:'Liberation Mono';-inkscape-font-specification:'Liberation Mono Bold';fill:#940d00;fill-opacity:1;stroke-width:0.268203"
         d="m 25.662516,75.603652 v 1.251088 h 1.477428 v -1.251088 z m 4.179073,0 c -0.155422,0.26271 -0.234612,0.584769 -0.234612,0.968417 0,0.09867 0.0069,0.192008 0.01704,0.282671 H 31.1986 c -0.03656,-0.110459 -0.05685,-0.2412 -0.05685,-0.39791 0,-0.220009 0.03674,-0.392594 0.110072,-0.518313 0.07334,-0.129215 0.180186,-0.222147 0.319876,-0.278019 0.05649,-0.02342 0.130294,-0.04163 0.213423,-0.05685 z m 3.118157,0 v 0.23513 c 0,0.408305 -0.11335,0.747149 -0.340032,1.015958 h 1.832962 c -0.01326,-0.101349 -0.02119,-0.21775 -0.02119,-0.35605 v -0.895038 z m 3.279386,0 v 1.251088 h 1.471744 v -1.251088 z m 3.567223,0 v 1.251088 h 1.466578 v -1.251088 z m 2.911449,0 c -0.155287,0.262721 -0.234609,0.584742 -0.234609,0.968417 0,0.09867 0.0069,0.192008 0.01707,0.282671 h 1.57458 c -0.0365,-0.110459 -0.05684,-0.2412 -0.05684,-0.39791 0,-0.220009 0.03674,-0.392594 0.110069,-0.518313 0.07334,-0.129215 0.179674,-0.222147 0.31936,-0.278019 0.05649,-0.02342 0.130294,-0.04163 0.213426,-0.05685 z m 3.117641,0 v 0.23513 c 0,0.408305 -0.11335,0.747149 -0.340032,1.015958 h 1.832964 c -0.01315,-0.101346 -0.02066,-0.217755 -0.02066,-0.35605 v -0.895038 z m 2.922817,0 v 1.251088 h 1.199928 v -1.251088 z m 2.231906,0 v 1.251088 h 1.194242 v -1.251088 z m 2.22622,0 v 1.251088 h 1.194242 v -1.251088 z m 2.377117,0 c -0.155291,0.262721 -0.234611,0.584742 -0.234611,0.968417 0,0.09867 0.0069,0.192008 0.01704,0.282671 h 1.574581 c -0.0365,-0.110459 -0.05684,-0.2412 -0.05684,-0.39791 0,-0.220009 0.03673,-0.392594 0.110072,-0.518313 0.07333,-0.129215 0.17967,-0.222147 0.31936,-0.278019 0.05649,-0.02342 0.130291,-0.04163 0.213423,-0.05685 z m 3.117639,0 v 0.23513 c 0,0.408305 -0.11335,0.747149 -0.340032,1.015958 h 1.83348 c -0.01326,-0.101349 -0.02119,-0.21775 -0.02119,-0.35605 v -0.895038 z m 3.11454,0 c 0.02183,0.474954 0.109125,0.893056 0.267165,1.251088 h 1.606622 c -0.190918,-0.27731 -0.29717,-0.697897 -0.325046,-1.251088 z m 6.602695,0 v 1.251088 h 1.472264 v -1.251088 z m 3.567227,0 v 1.251088 h 1.467093 v -1.251088 z m 9.143626,0 c 0.02183,0.474954 0.109125,0.893056 0.267166,1.251088 h 1.606621 C 82.822101,76.57743 82.71585,76.156843 82.687974,75.603652 Z m 6.344314,0 c 0.02469,0.47662 0.114787,0.894548 0.273371,1.251088 h 1.580782 c -0.0098,-0.01397 -0.02011,-0.02667 -0.02946,-0.04134 -0.164801,-0.266676 -0.254159,-0.675655 -0.277503,-1.209746 z m 3.915008,0 c -0.02355,0.540107 -0.114604,0.950809 -0.28267,1.214914 -0.0083,0.01286 -0.01815,0.02384 -0.02687,0.03617 h 1.578197 c 0.158454,-0.35654 0.248219,-0.774468 0.272852,-1.251088 z m 2.425176,0 v 1.251088 h 1.199925 v -1.251088 z m 2.231904,0 v 1.251088 h 1.194241 v -1.251088 z m 2.22622,0 v 1.251088 h 1.194249 v -1.251088 z m -32.70808,0.617535 c -0.03357,0.258223 -0.10713,0.468836 -0.219107,0.633553 h 1.544609 c 0.07337,-0.177488 0.124417,-0.365586 0.15141,-0.565341 z m 19.313548,0 c -0.03356,0.25822 -0.106762,0.468839 -0.21859,0.633553 h 1.544608 c 0.07324,-0.177488 0.123899,-0.365586 0.150897,-0.565341 z m -8.308019,0.35605 v 0.277503 h 1.51412 v -0.277503 z" />
      <path
         id="path31549"
         style="font-weight:bold;font-family:'Liberation Mono';-inkscape-font-specification:'Liberation Mono Bold';fill:#359400;fill-opacity:1;stroke-width:0.268203"
         d="m 25.662516,73.85854 v 1.251087 h 1.477429 V 73.85854 Z m 4.250387,0 c -0.019,0.07263 -0.03596,0.147246 -0.04909,0.225308 l 1.534793,0.07338 c 0.01132,-0.113234 0.03213,-0.210686 0.05839,-0.298691 z m 2.964677,0 c 0.05274,0.161012 0.08217,0.356005 0.08217,0.592211 v 0.287838 l -1.168405,0.02119 c -0.618032,0.0089 -1.104381,0.126098 -1.461926,0.349851 h 4.102076 v -0.664044 c 0,-0.212669 -0.02103,-0.407035 -0.05891,-0.587044 z m 3.361552,0 v 1.251087 h 1.473296 c 0.0043,-0.458671 0.110839,-0.839919 0.322976,-1.141015 0.02781,-0.03928 0.05672,-0.07576 0.08682,-0.110072 z m 3.367236,0 c 0.132667,0.230849 0.199988,0.587872 0.199988,1.073835 v 0.177252 h 1.466577 v -0.533302 c 0,-0.263403 -0.01982,-0.502137 -0.0584,-0.717785 z m 3.182234,0 c -0.019,0.07263 -0.03596,0.147246 -0.04909,0.225308 l 1.53479,0.07338 c 0.01132,-0.113234 0.03213,-0.210686 0.05839,-0.298691 z m 2.964677,0 c 0.05274,0.161012 0.08217,0.356005 0.08217,0.592211 v 0.287838 l -1.167886,0.02119 c -0.618035,0.0089 -1.104787,0.126098 -1.462445,0.349851 h 4.102592 v -0.664044 c 0,-0.212669 -0.02096,-0.407035 -0.05891,-0.587044 z m 3.004984,0 v 1.251087 h 1.200444 c 0.0011,-0.513334 0.04937,-0.929552 0.144695,-1.251087 z m 2.179712,0 c 0.0341,0.209613 0.05219,0.497038 0.05219,0.869714 v 0.381373 h 1.194242 v -0.08268 c 0,-0.506299 0.04345,-0.891476 0.125574,-1.168405 z m 2.226222,0 c 0.0341,0.209613 0.05219,0.497038 0.05219,0.869714 v 0.381373 h 1.194242 v -0.711586 c 0,-0.196374 -0.0072,-0.37424 -0.02016,-0.539501 z m 2.500622,0 c -0.019,0.07263 -0.03596,0.147246 -0.04909,0.225308 l 1.53479,0.07338 c 0.01132,-0.113234 0.03223,-0.210686 0.0584,-0.298691 z m 2.964678,0 c 0.05259,0.161012 0.08165,0.356005 0.08165,0.592211 v 0.287838 l -1.167886,0.02119 c -0.618033,0.0089 -1.104784,0.126098 -1.462445,0.349851 h 4.102592 v -0.664044 c 0,-0.212669 -0.02096,-0.407035 -0.05891,-0.587044 z m 3.46542,0 c -0.156388,0.358005 -0.244658,0.776398 -0.268717,1.251087 h 1.545125 c 0.02005,-0.548965 0.116522,-0.969859 0.296624,-1.251087 z m 3.255099,0 c 0.08722,0.14256 0.147601,0.310554 0.176216,0.508497 l 1.482598,-0.07338 C 66.97969,74.139775 66.9391,73.995133 66.887907,73.858542 Z m 3.078364,0 v 1.251087 h 1.47433 c 0.005,-0.463023 0.111088,-0.844415 0.322461,-1.141015 0.02811,-0.03927 0.0575,-0.07582 0.08785,-0.110072 z m 3.374472,0 c 0.128074,0.211352 0.192752,0.564713 0.192754,1.0635 v 0.187587 H 73.4627 v -0.528134 c 0,-0.266124 -0.01992,-0.506461 -0.05788,-0.722953 z m 9.605616,0 c -0.15639,0.358005 -0.244658,0.776398 -0.268719,1.251087 h 1.545127 c 0.02005,-0.548965 0.11652,-0.969859 0.296622,-1.251087 z m 3.255613,0 c 0.08737,0.14256 0.1476,0.310554 0.176218,0.508497 l 1.482079,-0.07338 c -0.02914,-0.153882 -0.06973,-0.298524 -0.120922,-0.435115 z m 3.0763,0 c -0.152501,0.357066 -0.237686,0.774983 -0.258384,1.251087 h 1.546677 c 0.02005,-0.547793 0.108686,-0.965017 0.274402,-1.235067 0.0035,-0.0057 0.0077,-0.01048 0.01138,-0.01601 z m 3.39049,0 c 0.0034,0.0056 0.0075,0.01029 0.01085,0.01601 0.156598,0.267142 0.240508,0.684443 0.259413,1.235067 h 1.540991 c -0.01857,-0.480925 -0.09671,-0.89843 -0.234611,-1.251087 z m 2.69286,0 v 1.251087 h 1.200441 c 0.0011,-0.513334 0.04937,-0.929552 0.144695,-1.251087 z m 2.179711,0 c 0.0341,0.209613 0.05219,0.497038 0.05219,0.869714 v 0.381373 h 1.194242 v -0.08268 c 0,-0.506299 0.04345,-0.891476 0.125574,-1.168405 z m 2.226221,0 c 0.0341,0.209613 0.05219,0.497038 0.05219,0.869714 v 0.381373 h 1.19424 v -0.711586 c 0,-0.196374 -0.007,-0.37424 -0.0202,-0.539501 z" />
      <path
         id="path31551"
         style="font-weight:bold;font-family:'Liberation Mono';-inkscape-font-specification:'Liberation Mono Bold';fill:#940007;fill-opacity:1;stroke-width:0.268203"
         d="m 68.428379,72.113427 v 1.251085 h 1.44539 c 0.0159,-0.276209 0.02687,-0.555868 0.02687,-0.841808 V 72.113427 Z M 39.512832,72.39713 c -0.415573,0 -0.773504,0.09796 -1.073835,0.293523 -0.233585,0.152101 -0.435849,0.378195 -0.608233,0.673859 h 3.243731 C 40.813338,72.7208 40.293895,72.39713 39.512832,72.39713 Z m -7.265704,0.0052 c -1.059151,0 -1.771415,0.320953 -2.137339,0.962215 h 1.942518 c 0.04262,-0.0044 0.08514,-0.0088 0.132292,-0.0088 0.03405,0 0.06339,0.0059 0.09508,0.0088 h 1.92288 c -0.0873,-0.169242 -0.198926,-0.317395 -0.336409,-0.443424 -0.373668,-0.345728 -0.913596,-0.518832 -1.619022,-0.518832 z m 12.876215,0 c -1.059138,0 -1.771267,0.320966 -2.137336,0.962215 h 1.941999 c 0.04262,-0.0044 0.08514,-0.0088 0.132292,-0.0088 0.03405,0 0.06339,0.0059 0.09509,0.0088 h 1.922877 c -0.08739,-0.169242 -0.198931,-0.317395 -0.336416,-0.443424 -0.373668,-0.345728 -0.913077,-0.518832 -1.618506,-0.518832 z m 5.871993,0 c -0.272394,0 -0.499499,0.08237 -0.681096,0.246496 -0.170738,0.151043 -0.312701,0.391809 -0.427879,0.715719 h 0.538983 c 0.03479,-0.01508 0.07088,-0.02429 0.109037,-0.02429 0.0477,0 0.09037,0.0092 0.12971,0.02429 h 1.3317 C 51.928471,73.049575 51.825119,72.810561 51.681599,72.653996 51.531434,72.48637 51.302652,72.40233 50.995336,72.40233 Z m 2.262912,0 c -0.296839,0 -0.542893,0.07901 -0.738457,0.236162 -0.180047,0.147314 -0.336238,0.391594 -0.470255,0.726053 h 0.591177 c 0.038,-0.01579 0.07779,-0.02429 0.119891,-0.02429 0.0477,0 0.09036,0.0092 0.129707,0.02429 h 1.432988 c -0.0437,-0.209756 -0.102923,-0.381902 -0.179835,-0.511595 -0.178104,-0.300331 -0.473135,-0.45062 -0.885216,-0.45062 z m 4.740794,0 c -1.059146,0 -1.771412,0.320953 -2.137336,0.962215 h 1.941999 c 0.04262,-0.0044 0.08514,-0.0088 0.132292,-0.0088 0.03405,0 0.06338,0.0059 0.09509,0.0088 h 1.92288 c -0.08739,-0.169242 -0.198934,-0.317395 -0.336419,-0.443424 -0.373666,-0.345728 -0.913077,-0.518832 -1.618506,-0.518832 z m 6.531901,0 c -0.866069,0 -1.534629,0.262168 -2.006079,0.786 -0.05072,0.05598 -0.09737,0.115433 -0.142627,0.176215 h 4.245737 c -0.121922,-0.172913 -0.268369,-0.326583 -0.441317,-0.459401 -0.436528,-0.335253 -0.9887,-0.502814 -1.655714,-0.502814 z m 7.171655,0 c -0.415573,0 -0.773504,0.09796 -1.073835,0.293523 -0.232162,0.151175 -0.433425,0.375563 -0.605131,0.668692 h 3.244246 C 73.202268,73.200676 73.121365,73.056822 73.022414,72.936667 72.729068,72.580458 72.289293,72.40233 71.702598,72.40233 Z m 12.142412,0 c -0.866072,0 -1.535145,0.262168 -2.006595,0.786 -0.05072,0.05598 -0.09737,0.115433 -0.142629,0.176215 h 4.245737 C 85.8196,73.191591 85.673153,73.037921 85.500206,72.905103 85.063678,72.56985 84.512024,72.402289 83.84501,72.402289 Z m 6.374804,0 c -0.887023,0 -1.56615,0.254947 -2.037601,0.764812 -0.05785,0.06257 -0.112022,0.128416 -0.16278,0.197403 h 4.42867 C 92.002786,72.724005 91.261048,72.40233 90.219814,72.40233 Z m 5.840987,0 c -0.272391,0 -0.499499,0.08237 -0.681096,0.246496 -0.170738,0.151043 -0.312698,0.391809 -0.427879,0.715719 h 0.538986 c 0.03479,-0.01508 0.07088,-0.02429 0.109037,-0.02429 0.0477,0 0.09036,0.0092 0.129707,0.02429 h 1.331701 C 96.993937,73.049575 96.890584,72.810561 96.747064,72.653996 96.5969,72.48637 96.368117,72.40233 96.060801,72.40233 Z m 2.262912,0 c -0.296838,0 -0.543409,0.07901 -0.738973,0.236162 -0.180046,0.147314 -0.335777,0.391594 -0.469739,0.726053 h 0.591177 c 0.038,-0.01579 0.07779,-0.02429 0.119891,-0.02429 0.0477,0 0.09037,0.0092 0.129707,0.02429 h 1.432988 c -0.0437,-0.209756 -0.102923,-0.381902 -0.179834,-0.511595 -0.178105,-0.300331 -0.473136,-0.45062 -0.885217,-0.45062 z m -74.515348,0.104905 v 0.85731 h 3.331579 v -0.85731 z m 12.388391,0 c 0.01048,0.153656 0.01937,0.328435 0.02635,0.523999 0.0047,0.08609 0.0046,0.224816 0.0072,0.333311 h 1.426786 c -0.0044,-0.103179 -0.0049,-0.166663 -0.01447,-0.322976 -0.01746,-0.289854 -0.03138,-0.467982 -0.04186,-0.534334 z m 12.530503,0 c 0.01632,0.114231 0.02389,0.431641 0.02739,0.85731 h 1.098642 V 73.17231 l -0.03153,-0.665075 z m 45.064946,0 c 0.01633,0.114231 0.02426,0.431641 0.02791,0.85731 h 1.098642 V 73.17231 l -0.03152,-0.665075 z" />
      <path
         id="path31553"
         style="font-weight:bold;font-family:'Liberation Mono';-inkscape-font-specification:'Liberation Mono Bold';fill:#359400;fill-opacity:1;stroke-width:0.268203"
         d="m 25.6682,70.401385 v 1.084173 h 1.471744 v -1.084173 z m 42.760179,0 V 71.6194 h 1.472264 v -1.218015 z" />
    </g>
    <g
       aria-label="janamach.com"
       id="g55875"
       style="font-size:10.7281px;line-height:1.25;stroke-width:0.268204"
       transform="translate(1.2064035,103.84624)">
      <path
         style="font-weight:bold;font-family:'Liberation Mono';-inkscape-font-specification:'Liberation Mono Bold';stroke-width:1.01368"
         d="m 92.347656,691.42969 v 4.08789 c 0.593953,0.22438 1.431359,0.42216 2.513672,0.59375 0.125442,0.0199 0.248138,0.0273 0.373047,0.0449 h 5.164065 c 0.86892,-0.16027 1.68014,-0.40639 2.42187,-0.75586 1.38589,-0.64675 2.44835,-1.585 3.1875,-2.8125 0.22427,-0.36198 0.40504,-0.75288 0.5625,-1.1582 h -6.46093 c -0.613746,0.40172 -1.464402,0.60351 -2.554692,0.60351 -1.578865,0 -3.212228,-0.20551 -4.896485,-0.60351 z"
         transform="matrix(0.26458333,0,0,0.26458333,-1.2064035,-103.84624)"
         id="path58151" />
      <path
         style="font-weight:bold;font-family:'Liberation Mono';-inkscape-font-specification:'Liberation Mono Bold';stroke-width:0.268203"
         d="m 94.577413,77.349415 v 0.825791 h 1.194242 v -0.825791 z"
         id="path58149" />
      <path
         style="font-weight:bold;font-family:'Liberation Mono';-inkscape-font-specification:'Liberation Mono Bold';stroke-width:0.268203"
         d="m 92.351193,77.349415 v 0.825791 h 1.194242 v -0.825791 z"
         id="path58147" />
      <path
         style="font-weight:bold;font-family:'Liberation Mono';-inkscape-font-specification:'Liberation Mono Bold';stroke-width:0.268203"
         d="m 90.119287,77.349415 v 0.825791 h 1.199925 v -0.825791 z"
         id="path58145" />
      <path
         style="font-weight:bold;font-family:'Liberation Mono';-inkscape-font-specification:'Liberation Mono Bold';stroke-width:0.268203"
         d="m 84.347029,77.349415 c 0.04361,0.05697 0.08785,0.113377 0.136427,0.165883 0.474943,0.509865 1.141825,0.76481 2.000912,0.76481 0.890516,0 1.573508,-0.254945 2.048454,-0.76481 0.04858,-0.05251 0.09282,-0.108916 0.136424,-0.165883 z"
         id="path58143" />
      <path
         style="font-weight:bold;font-family:'Liberation Mono';-inkscape-font-specification:'Liberation Mono Bold';stroke-width:0.268203"
         d="m 77.994447,77.349415 c 0.04309,0.05691 0.08686,0.113207 0.134874,0.165883 0.467958,0.509865 1.13149,0.76481 1.990577,0.76481 0.457483,0 0.869418,-0.08236 1.236101,-0.246496 0.356987,-0.163195 0.645311,-0.391925 0.866614,-0.684197 z"
         id="path58141" />
      <path
         style="font-weight:bold;font-family:'Liberation Mono';-inkscape-font-specification:'Liberation Mono Bold';stroke-width:0.268203"
         d="m 74.992045,77.349415 v 0.825791 h 1.514121 v -0.825791 z"
         id="path58139" />
      <path
         style="font-weight:bold;font-family:'Liberation Mono';-inkscape-font-specification:'Liberation Mono Bold';stroke-width:1.01368"
         d="m 276.66992,684.83398 v 3.1211 h 5.54492 v -3.1211 z"
         transform="matrix(0.26458333,0,0,0.26458333,-1.2064035,-103.84624)"
         id="path58137" />
      <path
         style="font-weight:bold;font-family:'Liberation Mono';-inkscape-font-specification:'Liberation Mono Bold';stroke-width:1.01368"
         d="m 263.1875,684.83398 v 3.1211 h 5.56445 v -3.1211 z"
         transform="matrix(0.26458333,0,0,0.26458333,-1.2064035,-103.84624)"
         id="path58135" />
      <path
         style="font-weight:bold;font-family:'Liberation Mono';-inkscape-font-specification:'Liberation Mono Bold';stroke-width:1.01368"
         d="m 240.3457,684.83398 c 0.16285,0.21508 0.32829,0.42787 0.50977,0.62696 1.76866,1.92705 4.2765,2.89062 7.52344,2.89062 1.72906,0 3.28598,-0.31129 4.67187,-0.93164 1.34925,-0.6168 2.43712,-1.48128 3.27344,-2.58594 z"
         transform="matrix(0.26458333,0,0,0.26458333,-1.2064035,-103.84624)"
         id="path58133" />
      <path
         style="font-weight:bold;font-family:'Liberation Mono';-inkscape-font-specification:'Liberation Mono Bold';stroke-width:1.01368"
         d="m 227.26562,684.83398 c 0.1873,0.98707 0.53905,1.77147 1.07618,2.33008 0.67315,0.68634 1.71029,1.0293 3.10937,1.0293 0.39597,10e-6 0.73893,-0.0146 1.0293,-0.041 0.30358,-0.0264 0.58759,-0.058 0.85156,-0.0976 0.26398,-0.0396 0.52704,-0.0922 0.79102,-0.15821 0.26398,-0.066 0.56065,-0.13956 0.89062,-0.21875 v -2.84375 z"
         transform="matrix(0.26458333,0,0,0.26458333,-1.2064035,-103.84624)"
         id="path58131" />
      <path
         style="font-weight:bold;font-family:'Liberation Mono';-inkscape-font-specification:'Liberation Mono Bold';stroke-width:1.01368"
         d="m 214.31641,684.83398 c 0.28792,0.70347 0.68923,1.31843 1.21679,1.83399 1.1615,1.12191 2.77737,1.68359 4.84961,1.68359 1.47828,0 2.74683,-0.33028 3.80274,-0.99023 0.88966,-0.54917 1.69118,-1.40249 2.41601,-2.52735 z"
         transform="matrix(0.26458333,0,0,0.26458333,-1.2064035,-103.84624)"
         id="path58129" />
      <path
         style="font-weight:bold;font-family:'Liberation Mono';-inkscape-font-specification:'Liberation Mono Bold';stroke-width:1.01368"
         d="m 205.69336,684.83398 v 3.1211 h 4.51367 v -3.1211 z"
         transform="matrix(0.26458333,0,0,0.26458333,-1.2064035,-103.84624)"
         id="path58127" />
      <path
         style="font-weight:bold;font-family:'Liberation Mono';-inkscape-font-specification:'Liberation Mono Bold';stroke-width:1.01368"
         d="m 197.2793,684.83398 v 3.1211 h 4.51367 v -3.1211 z"
         transform="matrix(0.26458333,0,0,0.26458333,-1.2064035,-103.84624)"
         id="path58125" />
      <path
         style="font-weight:bold;font-family:'Liberation Mono';-inkscape-font-specification:'Liberation Mono Bold';stroke-width:1.01368"
         d="m 188.84375,684.83398 v 3.1211 h 4.53516 v -3.1211 z"
         transform="matrix(0.26458333,0,0,0.26458333,-1.2064035,-103.84624)"
         id="path58123" />
      <path
         style="font-weight:bold;font-family:'Liberation Mono';-inkscape-font-specification:'Liberation Mono Bold';stroke-width:1.01368"
         d="m 178.60156,684.83398 c 0.1873,0.98707 0.53904,1.77147 1.07617,2.33008 0.67314,0.68634 1.71029,1.0293 3.10938,1.0293 0.39597,10e-6 0.73892,-0.0146 1.0293,-0.041 0.30357,-0.0264 0.58758,-0.058 0.85156,-0.0976 0.26398,-0.0396 0.52703,-0.0922 0.79101,-0.15821 0.26398,-0.066 0.56066,-0.13956 0.89063,-0.21875 v -2.84375 z"
         transform="matrix(0.26458333,0,0,0.26458333,-1.2064035,-103.84624)"
         id="path58121" />
      <path
         style="font-weight:bold;font-family:'Liberation Mono';-inkscape-font-specification:'Liberation Mono Bold';stroke-width:1.01368"
         d="m 165.65234,684.83398 c 0.28793,0.70347 0.68925,1.31843 1.2168,1.83399 1.16151,1.12191 2.77738,1.68359 4.84961,1.68359 1.47828,0 2.74487,-0.33028 3.80078,-0.99023 0.88967,-0.54917 1.69269,-1.40249 2.41797,-2.52735 z"
         transform="matrix(0.26458333,0,0,0.26458333,-1.2064035,-103.84624)"
         id="path58119" />
      <path
         style="font-weight:bold;font-family:'Liberation Mono';-inkscape-font-specification:'Liberation Mono Bold';stroke-width:1.01368"
         d="m 155.00977,684.83398 v 3.1211 h 5.54296 v -3.1211 z"
         transform="matrix(0.26458333,0,0,0.26458333,-1.2064035,-103.84624)"
         id="path58117" />
      <path
         style="font-weight:bold;font-family:'Liberation Mono';-inkscape-font-specification:'Liberation Mono Bold';stroke-width:1.01368"
         d="m 141.52734,684.83398 v 3.1211 h 5.5625 v -3.1211 z"
         transform="matrix(0.26458333,0,0,0.26458333,-1.2064035,-103.84624)"
         id="path58115" />
      <path
         style="font-weight:bold;font-family:'Liberation Mono';-inkscape-font-specification:'Liberation Mono Bold';stroke-width:1.01368"
         d="m 129.9375,684.83398 c 0.1873,0.98707 0.53905,1.77147 1.07617,2.33008 0.67315,0.68634 1.70833,1.0293 3.10742,1.0293 0.39597,10e-6 0.74087,-0.0146 1.03125,-0.041 0.30357,-0.0264 0.58563,-0.058 0.84961,-0.0976 0.26398,-0.0396 0.52899,-0.0922 0.79297,-0.15821 0.26397,-0.066 0.56066,-0.13956 0.89063,-0.21875 v -2.84375 z"
         transform="matrix(0.26458333,0,0,0.26458333,-1.2064035,-103.84624)"
         id="path58113" />
      <path
         style="font-weight:bold;font-family:'Liberation Mono';-inkscape-font-specification:'Liberation Mono Bold';stroke-width:1.01368"
         d="m 116.98633,684.83398 c 0.28792,0.70347 0.68924,1.31843 1.21679,1.83399 1.1615,1.12191 2.77934,1.68359 4.85157,1.68359 1.47828,0 2.74487,-0.33028 3.80078,-0.99023 0.88966,-0.54917 1.69269,-1.40249 2.41797,-2.52735 z"
         transform="matrix(0.26458333,0,0,0.26458333,-1.2064035,-103.84624)"
         id="path58111" />
      <path
         style="font-weight:bold;font-family:'Liberation Mono';-inkscape-font-specification:'Liberation Mono Bold';stroke-width:1.01368"
         d="m 101.55273,684.83398 v 2.92383 c 0,0.68706 -0.0726,1.28433 -0.21093,1.80274 h 5.70312 c 0.0572,-0.43221 0.0918,-0.87829 0.0918,-1.34766 v -3.37891 z"
         transform="matrix(0.26458333,0,0,0.26458333,-1.2064035,-103.84624)"
         id="path58109" />
      <path
         style="font-weight:bold;font-family:'Liberation Mono';-inkscape-font-specification:'Liberation Mono Bold';stroke-width:0.268203"
         d="m 74.992045,76.577371 v 0.276985 h 1.514121 v -0.276985 z"
         id="path58107" />
      <path
         style="font-weight:bold;font-family:'Liberation Mono';-inkscape-font-specification:'Liberation Mono Bold';stroke-width:0.268203"
         d="m 81.183398,76.221319 c -0.03353,0.257924 -0.106466,0.468402 -0.218075,0.633037 h 1.544093 c 0.07314,-0.177364 0.12392,-0.365228 0.150894,-0.564825 z"
         id="path58105" />
      <path
         style="font-weight:bold;font-family:'Liberation Mono';-inkscape-font-specification:'Liberation Mono Bold';stroke-width:1.01368"
         d="m 252.39844,680.57031 c -0.12673,0.97485 -0.40377,1.77034 -0.82617,2.39258 h 5.83593 c 0.27694,-0.67035 0.47033,-1.38039 0.57227,-2.13477 z"
         transform="matrix(0.26458333,0,0,0.26458333,-1.2064035,-103.84624)"
         id="path58103" />
      <path
         style="font-weight:bold;font-family:'Liberation Mono';-inkscape-font-specification:'Liberation Mono Bold';stroke-width:0.268203"
         d="m 94.577413,75.603787 v 1.250569 h 1.194242 v -1.250569 z"
         id="path58101" />
      <path
         style="font-weight:bold;font-family:'Liberation Mono';-inkscape-font-specification:'Liberation Mono Bold';stroke-width:0.268203"
         d="m 92.351193,75.603787 v 1.250569 h 1.194242 v -1.250569 z"
         id="path58099" />
      <path
         style="font-weight:bold;font-family:'Liberation Mono';-inkscape-font-specification:'Liberation Mono Bold';stroke-width:0.268203"
         d="m 90.119287,75.603787 v 1.250569 h 1.199925 v -1.250569 z"
         id="path58097" />
      <path
         style="font-weight:bold;font-family:'Liberation Mono';-inkscape-font-specification:'Liberation Mono Bold';stroke-width:0.268203"
         d="m 83.779622,75.603787 c 0.02469,0.47643 0.114903,0.894122 0.273368,1.250569 h 4.910296 c 0.158337,-0.356447 0.248227,-0.774139 0.272851,-1.250569 z"
         id="path58095" />
      <path
         style="font-weight:bold;font-family:'Liberation Mono';-inkscape-font-specification:'Liberation Mono Bold';stroke-width:0.268203"
         d="m 77.435308,75.603787 c 0.0218,0.474763 0.109241,0.892632 0.267166,1.250569 h 1.606621 c -0.19077,-0.277307 -0.297182,-0.697614 -0.325046,-1.250569 z"
         id="path58093" />
      <path
         style="font-weight:bold;font-family:'Liberation Mono';-inkscape-font-specification:'Liberation Mono Bold';stroke-width:1.01368"
         d="m 276.66992,678.23633 v 4.72656 h 5.54492 v -4.72656 z"
         transform="matrix(0.26458333,0,0,0.26458333,-1.2064035,-103.84624)"
         id="path58091" />
      <path
         style="font-weight:bold;font-family:'Liberation Mono';-inkscape-font-specification:'Liberation Mono Bold';stroke-width:1.01368"
         d="m 263.1875,678.23633 v 4.72656 h 5.56445 v -4.72656 z"
         transform="matrix(0.26458333,0,0,0.26458333,-1.2064035,-103.84624)"
         id="path58089" />
      <path
         style="font-weight:bold;font-family:'Liberation Mono';-inkscape-font-specification:'Liberation Mono Bold';stroke-width:1.01368"
         d="m 238.23242,678.23633 c 0.0825,1.79438 0.41289,3.37373 1.00977,4.72656 h 6.07226 c -0.72101,-1.04809 -1.1232,-2.63665 -1.22851,-4.72656 z"
         transform="matrix(0.26458333,0,0,0.26458333,-1.2064035,-103.84624)"
         id="path58087" />
      <path
         style="font-weight:bold;font-family:'Liberation Mono';-inkscape-font-specification:'Liberation Mono Bold';stroke-width:1.01368"
         d="m 214.67773,678.23633 c -0.58692,0.99295 -0.88671,2.21004 -0.88671,3.66015 0,0.37222 0.026,0.72434 0.0644,1.06641 h 18.25 c -0.0499,-0.38266 -0.0801,-0.82187 -0.0801,-1.34375 v -3.38281 z"
         transform="matrix(0.26458333,0,0,0.26458333,-1.2064035,-103.84624)"
         id="path58085" />
      <path
         style="font-weight:bold;font-family:'Liberation Mono';-inkscape-font-specification:'Liberation Mono Bold';stroke-width:1.01368"
         d="m 205.69336,678.23633 v 4.72656 h 4.51367 v -4.72656 z"
         transform="matrix(0.26458333,0,0,0.26458333,-1.2064035,-103.84624)"
         id="path58083" />
      <path
         style="font-weight:bold;font-family:'Liberation Mono';-inkscape-font-specification:'Liberation Mono Bold';stroke-width:1.01368"
         d="m 197.2793,678.23633 v 4.72656 h 4.51367 v -4.72656 z"
         transform="matrix(0.26458333,0,0,0.26458333,-1.2064035,-103.84624)"
         id="path58081" />
      <path
         style="font-weight:bold;font-family:'Liberation Mono';-inkscape-font-specification:'Liberation Mono Bold';stroke-width:1.01368"
         d="m 188.84375,678.23633 v 4.72656 h 4.53516 v -4.72656 z"
         transform="matrix(0.26458333,0,0,0.26458333,-1.2064035,-103.84624)"
         id="path58079" />
      <path
         style="font-weight:bold;font-family:'Liberation Mono';-inkscape-font-specification:'Liberation Mono Bold';stroke-width:1.01368"
         d="m 166.01367,678.23633 c -0.58693,0.99295 -0.88672,2.21004 -0.88672,3.66015 0,0.37222 0.026,0.72434 0.0645,1.06641 h 18.24804 c -0.0495,-0.38265 -0.0781,-0.82189 -0.0781,-1.34375 v -3.38281 z"
         transform="matrix(0.26458333,0,0,0.26458333,-1.2064035,-103.84624)"
         id="path58077" />
      <path
         style="font-weight:bold;font-family:'Liberation Mono';-inkscape-font-specification:'Liberation Mono Bold';stroke-width:1.01368"
         d="m 155.00977,678.23633 v 4.72656 h 5.54296 v -4.72656 z"
         transform="matrix(0.26458333,0,0,0.26458333,-1.2064035,-103.84624)"
         id="path58075" />
      <path
         style="font-weight:bold;font-family:'Liberation Mono';-inkscape-font-specification:'Liberation Mono Bold';stroke-width:1.01368"
         d="m 141.52734,678.23633 v 4.72656 h 5.5625 v -4.72656 z"
         transform="matrix(0.26458333,0,0,0.26458333,-1.2064035,-103.84624)"
         id="path58073" />
      <path
         style="font-weight:bold;font-family:'Liberation Mono';-inkscape-font-specification:'Liberation Mono Bold';stroke-width:1.01368"
         d="m 117.34766,678.23633 c -0.58742,0.99291 -0.88672,2.21014 -0.88672,3.66015 0,0.37222 0.026,0.72434 0.0645,1.06641 h 18.25 c -0.0499,-0.38266 -0.0801,-0.82187 -0.0801,-1.34375 v -3.38281 z"
         transform="matrix(0.26458333,0,0,0.26458333,-1.2064035,-103.84624)"
         id="path58071" />
      <path
         style="font-weight:bold;font-family:'Liberation Mono';-inkscape-font-specification:'Liberation Mono Bold';stroke-width:1.01368"
         d="m 101.55273,678.23633 v 4.72656 h 5.58399 v -4.72656 z"
         transform="matrix(0.26458333,0,0,0.26458333,-1.2064035,-103.84624)"
         id="path58069" />
      <path
         id="path58067"
         style="font-weight:bold;font-family:'Liberation Mono';-inkscape-font-specification:'Liberation Mono Bold';stroke-width:1.01368"
         d="m 101.55273,671.64062 v 4.72657 h 5.58399 v -4.72657 z m 16.06446,0 c -0.0718,0.2745 -0.13592,0.55653 -0.18555,0.85157 l 5.80078,0.27734 c 0.0428,-0.42796 0.12145,-0.79629 0.2207,-1.12891 z m 11.20508,0 c 0.19933,0.60855 0.31054,1.34553 0.31054,2.23829 v 1.08789 l -4.41601,0.0801 c -2.33458,0.0337 -4.17229,0.47555 -5.52344,1.32031 h 15.50195 v -2.50781 c 0,-0.8038 -0.0795,-1.5384 -0.22265,-2.21876 z m 12.70507,0 v 4.72657 h 5.56836 c 0.0165,-1.73266 0.41924,-3.17298 1.22071,-4.31055 0.10508,-0.14846 0.21438,-0.28633 0.32812,-0.41602 z m 12.72657,0 c 0.50142,0.8725 0.75586,2.22188 0.75586,4.0586 v 0.66797 h 5.54296 v -2.01367 c 0,-0.99555 -0.0749,-1.89785 -0.2207,-2.7129 z m 12.02734,0 c -0.0719,0.2745 -0.13591,0.55653 -0.18555,0.85157 l 5.80078,0.27734 c 0.0428,-0.42796 0.12144,-0.79629 0.22071,-1.12891 z m 11.20508,0 c 0.19933,0.60855 0.31054,1.34553 0.31055,2.23829 v 1.08789 l -4.41407,0.0801 c -2.33458,0.0337 -4.17381,0.47555 -5.52539,1.32031 h 15.50391 v -2.50781 c 0,-0.8038 -0.0792,-1.5384 -0.22266,-2.21876 z m 11.35742,0 v 4.72657 h 4.53711 c 0.004,-1.93922 0.18672,-3.51174 0.54687,-4.72657 z m 8.23828,0 c 0.12887,0.79224 0.19727,1.87857 0.19727,3.28711 v 1.43946 h 4.51367 v -0.31055 c 0,-1.91357 0.16422,-3.36936 0.47461,-4.41602 z m 8.41406,0 c 0.12887,0.79224 0.19727,1.87857 0.19727,3.28711 v 1.43946 h 4.51367 v -2.6875 c 0,-0.74221 -0.0274,-1.41445 -0.0762,-2.03907 z m 9.45118,0 c -0.0718,0.2745 -0.13592,0.55653 -0.18555,0.85157 l 5.80078,0.27734 c 0.0428,-0.42796 0.12182,-0.79629 0.2207,-1.12891 z m 11.20507,0 c 0.19876,0.60855 0.3086,1.34553 0.3086,2.23829 v 1.08789 l -4.41406,0.0801 c -2.33458,0.0337 -4.17382,0.47555 -5.5254,1.32031 h 15.50391 v -2.50781 c 0,-0.8038 -0.0792,-1.5384 -0.22266,-2.21876 z m 13.09766,0 c -0.59087,1.35261 -0.92456,2.93327 -1.01562,4.72657 h 5.83984 c 0.076,-2.07386 0.44061,-3.66399 1.12109,-4.72657 z m 12.30273,0 c 0.32964,0.53881 0.55786,1.17375 0.66602,1.92188 l 5.60352,-0.27734 c -0.11013,-0.58161 -0.26355,-1.12828 -0.45704,-1.64454 z m 11.63477,0 v 4.72657 h 5.57227 c 0.0192,-1.74909 0.42017,-3.18997 1.21875,-4.31055 0.10625,-0.14842 0.21734,-0.28656 0.33203,-0.41602 z m 12.75391,0 c 0.48404,0.79881 0.72851,2.13436 0.72851,4.01954 v 0.70703 h 5.54492 v -1.99414 c 0,-1.00583 -0.0753,-1.91418 -0.21875,-2.73243 z m 22.30468,0 c -0.59086,1.35261 -0.92454,2.93327 -1.01562,4.72657 h 5.83984 c 0.076,-2.07386 0.4406,-3.66398 1.1211,-4.72657 z m 12.30469,0 c 0.33022,0.53881 0.55785,1.17375 0.66602,1.92188 l 5.60156,-0.27734 c -0.11014,-0.58162 -0.26355,-1.12827 -0.45703,-1.64454 z m 11.62695,0 c -0.57617,1.34907 -0.89818,2.92793 -0.97656,4.72657 h 20.63672 c -0.0703,-1.81685 -0.3657,-3.39416 -0.88672,-4.72657 z m 22.99024,0 v 4.72657 h 4.53711 c 0.004,-1.93922 0.18671,-3.51173 0.54687,-4.72657 z m 8.23828,0 c 0.12888,0.79224 0.19727,1.87859 0.19727,3.28711 v 1.43946 h 4.51367 v -0.31055 c 0,-1.91357 0.16422,-3.36935 0.47461,-4.41602 z m 8.41406,0 c 0.12888,0.79224 0.19727,1.87859 0.19727,3.28711 v 1.43946 h 4.51367 v -2.6875 c 0,-0.74221 -0.0272,-1.41445 -0.0762,-2.03907 z"
         transform="matrix(0.26458333,0,0,0.26458333,-1.2064035,-103.84624)" />
      <path
         style="font-weight:bold;font-family:'Liberation Mono';-inkscape-font-specification:'Liberation Mono Bold';stroke-width:0.268203"
         d="m 90.088281,72.507334 c 0.01633,0.114183 0.02389,0.431432 0.02739,0.856795 h 1.099155 v -0.191718 l -0.03152,-0.665077 z"
         id="path58023" />
      <path
         style="font-weight:bold;font-family:'Liberation Mono';-inkscape-font-specification:'Liberation Mono Bold';stroke-width:1.01368"
         d="m 188.72656,666.5332 c 0.0617,0.43156 0.0903,1.63061 0.10352,3.23828 h 4.15234 v -0.7246 l -0.11914,-2.51368 z"
         transform="matrix(0.26458333,0,0,0.26458333,-1.2064035,-103.84624)"
         id="path58021" />
      <path
         style="font-weight:bold;font-family:'Liberation Mono';-inkscape-font-specification:'Liberation Mono Bold';stroke-width:1.01368"
         d="m 141.36719,666.5332 c 0.0396,0.58075 0.0732,1.24133 0.0996,1.98047 0.0177,0.32489 0.0173,0.84852 0.0273,1.25781 h 5.39258 c -0.0165,-0.38967 -0.0187,-0.6289 -0.0547,-1.21875 -0.066,-1.09551 -0.11859,-1.76875 -0.1582,-2.01953 z"
         transform="matrix(0.26458333,0,0,0.26458333,-1.2064035,-103.84624)"
         id="path58019" />
      <path
         style="font-weight:bold;font-family:'Liberation Mono';-inkscape-font-specification:'Liberation Mono Bold';stroke-width:1.01368"
         d="m 94.544922,666.5332 v 3.23828 h 12.591798 v -3.23828 z"
         transform="matrix(0.26458333,0,0,0.26458333,-1.2064035,-103.84624)"
         id="path58017" />
      <path
         style="font-weight:bold;font-family:'Liberation Mono';-inkscape-font-specification:'Liberation Mono Bold';stroke-width:0.268203"
         d="m 94.61927,72.402424 c -0.296838,0 -0.543409,0.07901 -0.738973,0.236161 -0.17993,0.147217 -0.33532,0.391414 -0.46922,0.725536 h 0.592212 c 0.03754,-0.01537 0.0768,-0.02376 0.118337,-0.02376 0.04726,0 0.08962,0.0089 0.128675,0.02376 h 1.434021 c -0.04369,-0.209529 -0.102979,-0.381487 -0.179835,-0.51108 -0.178102,-0.300331 -0.473136,-0.450617 -0.885217,-0.450617 z"
         id="path58015" />
      <path
         style="font-weight:bold;font-family:'Liberation Mono';-inkscape-font-specification:'Liberation Mono Bold';stroke-width:0.268203"
         d="m 92.356361,72.402424 c -0.272161,1.06e-4 -0.4991,0.08248 -0.68058,0.246496 -0.170656,0.150969 -0.312727,0.391531 -0.427882,0.715201 h 0.54002 c 0.03433,-0.01463 0.06988,-0.02376 0.107487,-0.02376 0.04726,0 0.08962,0.0089 0.128675,0.02376 h 1.332735 c -0.06732,-0.31472 -0.170749,-0.553551 -0.314192,-0.710034 -0.15008,-0.167531 -0.378696,-0.251568 -0.685747,-0.251663 z"
         id="path58013" />
      <path
         style="font-weight:bold;font-family:'Liberation Mono';-inkscape-font-specification:'Liberation Mono Bold';stroke-width:0.268203"
         d="m 86.51589,72.402424 c -0.887024,0 -1.566153,0.254944 -2.037601,0.76481 -0.05769,0.06239 -0.111628,0.128113 -0.162264,0.196887 h 4.427635 c -0.445362,-0.640154 -1.186852,-0.961697 -2.22777,-0.961697 z"
         id="path58011" />
      <path
         style="font-weight:bold;font-family:'Liberation Mono';-inkscape-font-specification:'Liberation Mono Bold';stroke-width:0.268203"
         d="m 80.141085,72.402424 c -0.866071,0 -1.535146,0.262165 -2.006597,0.785997 -0.05063,0.05588 -0.09744,0.115033 -0.142626,0.1757 h 4.245737 C 82.115724,73.191353 81.969113,73.037969 81.796282,72.905235 81.359754,72.569982 80.8081,72.402424 80.141085,72.402424 Z"
         id="path58009" />
      <path
         style="font-weight:bold;font-family:'Liberation Mono';-inkscape-font-specification:'Liberation Mono Bold';stroke-width:1.01368"
         d="m 275.5625,666.13669 c -1.57067,0 -2.92348,0.37023 -4.05859,1.10937 -0.87708,0.57112 -1.63833,1.41821 -2.28711,2.52539 h 12.26172 c -0.24788,-0.61863 -0.55409,-1.16151 -0.92774,-1.61523 -1.10871,-1.3463 -2.77085,-2.01953 -4.98828,-2.01953 z"
         transform="matrix(0.26458333,0,0,0.26458333,-1.2064035,-103.84624)"
         id="path58007" />
      <path
         style="font-weight:bold;font-family:'Liberation Mono';-inkscape-font-specification:'Liberation Mono Bold';stroke-width:1.01368"
         d="m 248.45703,666.13669 c -3.27333,0 -5.80017,0.99086 -7.58203,2.9707 -0.19134,0.21119 -0.36829,0.43477 -0.53906,0.66406 h 16.04687 c -0.46063,-0.65298 -1.01475,-1.2327 -1.66797,-1.73437 -1.64987,-1.2671 -3.73681,-1.90039 -6.25781,-1.90039 z"
         transform="matrix(0.26458333,0,0,0.26458333,-1.2064035,-103.84624)"
         id="path58005" />
      <path
         style="font-weight:bold;font-family:'Liberation Mono';-inkscape-font-specification:'Liberation Mono Bold';stroke-width:1.01368"
         d="m 223.76953,666.13669 c -4.00183,0 -6.69277,1.2126 -8.07617,3.63476 h 7.36719 c 0.15259,-0.0148 0.30292,-0.0312 0.4707,-0.0312 0.121,0 0.22471,0.0216 0.33789,0.0312 h 7.28906 c -0.33017,-0.63886 -0.75226,-1.19787 -1.27148,-1.67382 -1.41228,-1.30669 -3.451,-1.96094 -6.11719,-1.96094 z"
         transform="matrix(0.26458333,0,0,0.26458333,-1.2064035,-103.84624)"
         id="path58003" />
      <path
         style="font-weight:bold;font-family:'Liberation Mono';-inkscape-font-specification:'Liberation Mono Bold';stroke-width:1.01368"
         d="m 205.85156,666.13669 c -1.12191,0 -2.05187,0.29863 -2.79101,0.89258 -0.68006,0.55641 -1.26908,1.47936 -1.77539,2.74218 h 2.23828 c 0.1419,-0.0581 0.29027,-0.0898 0.44726,-0.0898 0.17862,0 0.33871,0.0337 0.48633,0.0898 h 5.41992 c -0.16513,-0.79192 -0.38922,-1.44184 -0.67968,-1.93164 -0.67315,-1.13511 -1.78824,-1.70312 -3.34571,-1.70312 z"
         transform="matrix(0.26458333,0,0,0.26458333,-1.2064035,-103.84624)"
         id="path58001" />
      <path
         style="font-weight:bold;font-family:'Liberation Mono';-inkscape-font-specification:'Liberation Mono Bold';stroke-width:1.01368"
         d="m 197.29883,666.13669 c -1.02952,0 -1.88787,0.3113 -2.57422,0.93164 -0.645,0.57059 -1.18196,1.4798 -1.61719,2.70312 h 2.04297 c 0.12976,-0.0553 0.26413,-0.0898 0.40625,-0.0898 0.17862,0 0.33871,0.0337 0.48633,0.0898 h 5.03711 c -0.25444,-1.18949 -0.64535,-2.09216 -1.1875,-2.68359 -0.56755,-0.63355 -1.43224,-0.95117 -2.59375,-0.95117 z"
         transform="matrix(0.26458333,0,0,0.26458333,-1.2064035,-103.84624)"
         id="path57999" />
      <path
         style="font-weight:bold;font-family:'Liberation Mono';-inkscape-font-specification:'Liberation Mono Bold';stroke-width:1.01368"
         d="m 175.10547,666.13669 c -4.0018,0 -6.69221,1.21265 -8.07617,3.63476 h 7.36718 c 0.1526,-0.0148 0.30293,-0.0312 0.47071,-0.0312 0.121,0 0.22475,0.0216 0.33789,0.0312 h 7.28906 c -0.33017,-0.63886 -0.75227,-1.19787 -1.27148,-1.67382 -1.41229,-1.30669 -3.451,-1.96094 -6.11719,-1.96094 z"
         transform="matrix(0.26458333,0,0,0.26458333,-1.2064035,-103.84624)"
         id="path57997" />
      <path
         style="font-weight:bold;font-family:'Liberation Mono';-inkscape-font-specification:'Liberation Mono Bold';stroke-width:1.01368"
         d="m 126.43945,666.13669 c -4.00183,0 -6.69277,1.2126 -8.07617,3.63476 h 7.36914 c 0.1526,-0.0148 0.30293,-0.0312 0.4707,-0.0312 0.121,0 0.22476,0.0216 0.3379,0.0312 h 7.28906 c -0.32985,-0.63886 -0.75227,-1.19787 -1.27149,-1.67382 -1.41229,-1.30669 -3.45296,-1.96094 -6.11914,-1.96094 z"
         transform="matrix(0.26458333,0,0,0.26458333,-1.2064035,-103.84624)"
         id="path57995" />
      <path
         style="font-weight:bold;font-family:'Liberation Mono';-inkscape-font-specification:'Liberation Mono Bold';stroke-width:1.01368"
         d="m 153.90039,666.11719 c -1.57067,0 -2.92348,0.37023 -4.05859,1.10937 -0.88246,0.57463 -1.64748,1.42817 -2.29883,2.54492 h 12.25976 c -0.98727,-2.43181 -2.95098,-3.65429 -5.90234,-3.65429 z"
         transform="matrix(0.26458333,0,0,0.26458333,-1.2064035,-103.84624)"
         id="path57993" />
      <path
         style="font-weight:bold;font-family:'Liberation Mono';-inkscape-font-specification:'Liberation Mono Bold';stroke-width:1.01368"
         d="m 263.1875,665.04492 v 4.72656 h 5.46289 c 0.06,-1.04332 0.10156,-2.09964 0.10156,-3.17968 v -1.54688 z"
         transform="matrix(0.26458333,0,0,0.26458333,-1.2064035,-103.84624)"
         id="path57991" />
      <path
         style="font-weight:bold;font-family:'Liberation Mono';-inkscape-font-specification:'Liberation Mono Bold';stroke-width:1.01368"
         d="m 263.1875,658.57422 v 4.60156 h 5.56445 v -4.60156 z"
         transform="matrix(0.26458333,0,0,0.26458333,-1.2064035,-103.84624)"
         id="path57989" />
      <path
         style="font-weight:bold;font-family:'Liberation Mono';-inkscape-font-specification:'Liberation Mono Bold';stroke-width:1.01368"
         d="m 101.57422,658.57422 v 4.09766 h 5.5625 v -4.09766 z"
         transform="matrix(0.26458333,0,0,0.26458333,-1.2064035,-103.84624)"
         id="path55970" />
    </g>
  </g>
  <g
     inkscape:groupmode="layer"
     id="layer5"
     inkscape:label="Layer 3" />
  <g
     inkscape:label="Layer 1"
     id="layer1"
     inkscape:groupmode="layer">
    <g
       id="g13948"
       transform="matrix(1.1009495,0,0,1.1009495,-8.5217113,-22.931079)"
       style="fill:#3c9263;fill-opacity:1" />
    <g
       id="g14484"
       transform="matrix(1.1009495,0,0,1.1009495,-8.5217113,16.227267)">
      <path
         id="path14482"
         style="fill:#1a1a1a;fill-opacity:0.509804;fill-rule:evenodd;stroke-width:0.161891;stroke-opacity:0.509804"
         d="m 16.705955,85.880645 v 0.449099 h 90.830775 v -0.449099 z m 0,1.58513 v 0.449096 h 90.830775 v -0.449096 z m 0,1.585127 V 89.5 h 90.830775 v -0.449098 z m 0,1.585129 v 0.449519 h 90.830775 v -0.449519 z m 0,1.585129 v 0.449522 H 107.53673 V 92.22116 Z m 0,1.585129 v 0.449521 h 90.830775 v -0.449521 z" />
    </g>
    <g
       id="g55879"
       transform="matrix(1.1009495,0,0,1.1009495,-7.3153078,80.915159)" />
    <rect
       style="fill:#c4c8b7;fill-opacity:1;fill-rule:evenodd;stroke:none;stroke-width:0.606001;stroke-opacity:1"
       id="rect90584"
       width="66.691261"
       height="0.42819533"
       x="24.053955"
       y="203.97897" />
    <rect
       style="fill:#c4c8b7;fill-opacity:1;fill-rule:evenodd;stroke:none;stroke-width:0.606001;stroke-opacity:1"
       id="rect90756"
       width="66.691261"
       height="0.42819533"
       x="24.053955"
       y="206.41537" />
    <rect
       style="fill:#c4c8b7;fill-opacity:1;fill-rule:evenodd;stroke:none;stroke-width:0.606001;stroke-opacity:1"
       id="rect90758"
       width="66.691261"
       height="0.42819533"
       x="24.053955"
       y="208.85179" />
  </g>
</svg>
